<?xml version="1.0" encoding="UTF-8" standalone="no"?>
<!DOCTYPE svg PUBLIC "-//W3C//DTD SVG 1.1//EN"
 "http://www.w3.org/Graphics/SVG/1.1/DTD/svg11.dtd">
<!-- Generated by graphviz version 2.43.0 (0)
 -->
<!-- Title: WolfstagInteractive.WitWeaver.SimplePrefabRepresentationDisplay Pages: 1 -->
<svg width="991pt" height="178pt"
 viewBox="0.00 0.00 991.00 178.00" xmlns="http://www.w3.org/2000/svg" xmlns:xlink="http://www.w3.org/1999/xlink">
<g id="graph0" class="graph" transform="scale(1 1) rotate(0) translate(4 174)">
<title>WolfstagInteractive.WitWeaver.SimplePrefabRepresentationDisplay</title>
<!-- Node1 -->
<g id="Node000001" class="node">
<title>Node1</title>
<g id="a_Node000001"><a xlink:title=" ">
<polygon fill="#999999" stroke="#666666" points="983,-99.5 790,-99.5 790,-69.5 983,-69.5 983,-99.5"/>
<text text-anchor="start" x="798" y="-87.5" font-family="Helvetica,sans-Serif" font-size="10.00">WolfstagInteractive.WitWeaver.</text>
<text text-anchor="middle" x="886.5" y="-76.5" font-family="Helvetica,sans-Serif" font-size="10.00">SimplePrefabRepresentationDisplay</text>
</a>
</g>
</g>
<!-- Node2 -->
<g id="Node000002" class="node">
<title>Node2</title>
<g id="a_Node000002"><a xlink:href="classWolfstagInteractive_1_1WitWeaver_1_1WitWeaverCharacterDisplayBase.html" target="_top" xlink:title="Generic base class for all prefab&#45;based character displays.">
<polygon fill="white" stroke="#666666" points="687.5,-133 509.5,-133 509.5,-114 687.5,-114 687.5,-133"/>
<text text-anchor="middle" x="598.5" y="-121" font-family="Helvetica,sans-Serif" font-size="10.00">WitWeaverCharacterDisplayBase</text>
</a>
</g>
</g>
<!-- Node2&#45;&gt;Node1 -->
<g id="edge1_Node000001_Node000002" class="edge">
<title>Node2&#45;&gt;Node1</title>
<g id="a_edge1_Node000001_Node000002"><a xlink:title=" ">
<path fill="none" stroke="#63b8ff" d="M679.42,-112.6C713.68,-107.93 753.98,-102.44 789.81,-97.55"/>
<polygon fill="#63b8ff" stroke="#63b8ff" points="678.9,-109.14 669.46,-113.96 679.84,-116.08 678.9,-109.14"/>
</a>
</g>
</g>
<!-- Node3 -->
<g id="Node000003" class="node">
<title>Node3</title>
<g id="a_Node000003"><a xlink:title=" ">
<polygon fill="white" stroke="#666666" points="261.5,-170 168.5,-170 168.5,-151 261.5,-151 261.5,-170"/>
<text text-anchor="middle" x="215" y="-158" font-family="Helvetica,sans-Serif" font-size="10.00">MonoBehaviour</text>
</a>
</g>
</g>
<!-- Node3&#45;&gt;Node2 -->
<g id="edge2_Node000002_Node000003" class="edge">
<title>Node3&#45;&gt;Node2</title>
<g id="a_edge2_Node000002_Node000003"><a xlink:title=" ">
<path fill="none" stroke="#63b8ff" d="M271.67,-156.33C325.91,-152.12 410.7,-145.16 484,-137.5 496.84,-136.16 510.47,-134.6 523.67,-133.01"/>
<polygon fill="#63b8ff" stroke="#63b8ff" points="271.27,-152.85 261.57,-157.11 271.81,-159.83 271.27,-152.85"/>
</a>
</g>
</g>
<!-- Node4 -->
<g id="Node000004" class="node">
<title>Node4</title>
<g id="a_Node000004"><a xlink:href="interfaceWolfstagInteractive_1_1WitWeaver_1_1IWitWeaverCharacterDisplay.html" target="_top" xlink:title=" ">
<polygon fill="white" stroke="#666666" points="293.5,-133 136.5,-133 136.5,-114 293.5,-114 293.5,-133"/>
<text text-anchor="middle" x="215" y="-121" font-family="Helvetica,sans-Serif" font-size="10.00">IWitWeaverCharacterDisplay</text>
</a>
</g>
</g>
<!-- Node4&#45;&gt;Node2 -->
<g id="edge3_Node000002_Node000004" class="edge">
<title>Node4&#45;&gt;Node2</title>
<g id="a_edge3_Node000002_Node000004"><a xlink:title=" ">
<path fill="none" stroke="#63b8ff" d="M303.76,-123.5C365.4,-123.5 447.52,-123.5 509.27,-123.5"/>
<polygon fill="#63b8ff" stroke="#63b8ff" points="303.66,-120 293.66,-123.5 303.66,-127 303.66,-120"/>
</a>
</g>
</g>
<!-- Node5 -->
<g id="Node000005" class="node">
<title>Node5</title>
<g id="a_Node000005"><a xlink:href="classWolfstagInteractive_1_1WitWeaver_1_1CharacterRepresentationBase.html" target="_top" xlink:title="Abstract ScriptableObject base class for all character visual representations.">
<polygon fill="white" stroke="#666666" points="484,-99.5 314,-99.5 314,-69.5 484,-69.5 484,-99.5"/>
<text text-anchor="start" x="322" y="-87.5" font-family="Helvetica,sans-Serif" font-size="10.00">WolfstagInteractive.WitWeaver.</text>
<text text-anchor="middle" x="399" y="-76.5" font-family="Helvetica,sans-Serif" font-size="10.00">CharacterRepresentationBase</text>
</a>
</g>
</g>
<!-- Node5&#45;&gt;Node1 -->
<g id="edge4_Node000001_Node000005" class="edge">
<title>Node5&#45;&gt;Node1</title>
<g id="a_edge4_Node000001_Node000005"><a xlink:title=" ">
<path fill="none" stroke="#9a32cd" stroke-dasharray="5,2" d="M494.19,-84.5C579.3,-84.5 703.99,-84.5 789.62,-84.5"/>
<polygon fill="#9a32cd" stroke="#9a32cd" points="494.01,-81 484.01,-84.5 494.01,-88 494.01,-81"/>
</a>
</g>
<text text-anchor="middle" x="598.5" y="-87.5" font-family="Helvetica,sans-Serif" font-size="10.00" fill="grey"> _representation</text>
</g>
<!-- Node6 -->
<g id="Node000006" class="node">
<title>Node6</title>
<g id="a_Node000006"><a xlink:title=" ">
<polygon fill="white" stroke="#666666" points="97,-75 0,-75 0,-56 97,-56 97,-75"/>
<text text-anchor="middle" x="48.5" y="-63" font-family="Helvetica,sans-Serif" font-size="10.00">ScriptableObject</text>
</a>
</g>
</g>
<!-- Node6&#45;&gt;Node5 -->
<g id="edge5_Node000005_Node000006" class="edge">
<title>Node6&#45;&gt;Node5</title>
<g id="a_edge5_Node000005_Node000006"><a xlink:title=" ">
<path fill="none" stroke="#63b8ff" d="M107.25,-69.99C109.87,-70.17 112.46,-70.34 115,-70.5 181.77,-74.7 257.47,-78.39 313.76,-80.92"/>
<polygon fill="#63b8ff" stroke="#63b8ff" points="107.29,-66.49 97.07,-69.28 106.8,-73.47 107.29,-66.49"/>
</a>
</g>
</g>
<!-- Node8 -->
<g id="Node000008" class="node">
<title>Node8</title>
<g id="a_Node000008"><a xlink:href="classWolfstagInteractive_1_1WitWeaver_1_1CharacterRepresentationBase.html" target="_top" xlink:title="Abstract ScriptableObject base class for all character visual representations.">
<polygon fill="white" stroke="#666666" points="296,-56 134,-56 134,-37 296,-37 296,-56"/>
<text text-anchor="middle" x="215" y="-44" font-family="Helvetica,sans-Serif" font-size="10.00">CharacterRepresentationBase</text>
</a>
</g>
</g>
<!-- Node6&#45;&gt;Node8 -->
<g id="edge8_Node000008_Node000006" class="edge">
<title>Node6&#45;&gt;Node8</title>
<g id="a_edge8_Node000008_Node000006"><a xlink:title=" ">
<path fill="none" stroke="#63b8ff" d="M107.09,-58.85C115.79,-57.84 124.91,-56.79 133.98,-55.74"/>
<polygon fill="#63b8ff" stroke="#63b8ff" points="106.61,-55.38 97.08,-60 107.42,-62.33 106.61,-55.38"/>
</a>
</g>
</g>
<!-- Node7 -->
<g id="Node000007" class="node">
<title>Node7</title>
<g id="a_Node000007"><a xlink:href="classWolfstagInteractive_1_1WitWeaver_1_1PrefabCharacterRepresentationData.html" target="_top" xlink:title="Defines how a prefab&#45;based character is displayed in a WitWeaver conversation.">
<polygon fill="white" stroke="#666666" points="695,-48.5 502,-48.5 502,-18.5 695,-18.5 695,-48.5"/>
<text text-anchor="start" x="510" y="-36.5" font-family="Helvetica,sans-Serif" font-size="10.00">WolfstagInteractive.WitWeaver.</text>
<text text-anchor="middle" x="598.5" y="-25.5" font-family="Helvetica,sans-Serif" font-size="10.00">PrefabCharacterRepresentationData</text>
</a>
</g>
</g>
<!-- Node7&#45;&gt;Node1 -->
<g id="edge6_Node000001_Node000007" class="edge">
<title>Node7&#45;&gt;Node1</title>
<g id="a_edge6_Node000001_Node000007"><a xlink:title=" ">
<path fill="none" stroke="#9a32cd" stroke-dasharray="5,2" d="M705.13,-48.27C727.27,-51.69 750.44,-55.5 772,-59.5 787.87,-62.44 804.91,-65.98 820.83,-69.47"/>
<polygon fill="#9a32cd" stroke="#9a32cd" points="705.46,-44.78 695.05,-46.73 704.4,-51.7 705.46,-44.78"/>
</a>
</g>
<text text-anchor="middle" x="742.5" y="-62.5" font-family="Helvetica,sans-Serif" font-size="10.00" fill="grey"> _prefabRep</text>
</g>
<!-- Node8&#45;&gt;Node7 -->
<g id="edge7_Node000007_Node000008" class="edge">
<title>Node8&#45;&gt;Node7</title>
<g id="a_edge7_Node000007_Node000008"><a xlink:title=" ">
<path fill="none" stroke="#63b8ff" d="M306.48,-43.42C365.38,-41.41 442.11,-38.79 502,-36.75"/>
<polygon fill="#63b8ff" stroke="#63b8ff" points="306.32,-39.92 296.44,-43.76 306.55,-46.92 306.32,-39.92"/>
</a>
</g>
</g>
<!-- Node9 -->
<g id="Node000009" class="node">
<title>Node9</title>
<g id="a_Node000009"><a xlink:href="interfaceWolfstagInteractive_1_1WitWeaver_1_1IExpressionCatalogProvider.html" target="_top" xlink:title="Implemented by character representations that expose a list of expressions (stable GUID + human&#45;reada...">
<polygon fill="white" stroke="#666666" points="290.5,-19 139.5,-19 139.5,0 290.5,0 290.5,-19"/>
<text text-anchor="middle" x="215" y="-7" font-family="Helvetica,sans-Serif" font-size="10.00">IExpressionCatalogProvider</text>
</a>
</g>
</g>
<!-- Node9&#45;&gt;Node7 -->
<g id="edge9_Node000007_Node000009" class="edge">
<title>Node9&#45;&gt;Node7</title>
<g id="a_edge9_Node000007_Node000009"><a xlink:title=" ">
<path fill="none" stroke="#63b8ff" d="M301.03,-14.85C360.5,-18.59 440.01,-23.59 501.72,-27.47"/>
<polygon fill="#63b8ff" stroke="#63b8ff" points="301.12,-11.35 290.92,-14.21 300.68,-18.33 301.12,-11.35"/>
</a>
</g>
</g>
</g>
</svg>
