<?xml version="1.0" encoding="UTF-8" standalone="no"?>
<!DOCTYPE svg PUBLIC "-//W3C//DTD SVG 1.1//EN"
 "http://www.w3.org/Graphics/SVG/1.1/DTD/svg11.dtd">
<!-- Generated by graphviz version 2.43.0 (0)
 -->
<!-- Title: WolfstagInteractive.WitWeaver.WitWeaverAnimatedPortraitPlayer Pages: 1 -->
<svg width="549pt" height="150pt"
 viewBox="0.00 0.00 549.00 149.50" xmlns="http://www.w3.org/2000/svg" xmlns:xlink="http://www.w3.org/1999/xlink">
<g id="graph0" class="graph" transform="scale(1 1) rotate(0) translate(4 145.5)">
<title>WolfstagInteractive.WitWeaver.WitWeaverAnimatedPortraitPlayer</title>
<!-- Node1 -->
<g id="Node000001" class="node">
<title>Node1</title>
<g id="a_Node000001"><a xlink:title="uGUI reference implementation of IAnimatedPortraitSurface: hosts animated expression playback on an e...">
<polygon fill="#999999" stroke="#666666" points="541,-91 357,-91 357,-61 541,-61 541,-91"/>
<text text-anchor="start" x="365" y="-79" font-family="Helvetica,sans-Serif" font-size="10.00">WolfstagInteractive.WitWeaver.</text>
<text text-anchor="middle" x="449" y="-68" font-family="Helvetica,sans-Serif" font-size="10.00">WitWeaverAnimatedPortraitPlayer</text>
</a>
</g>
</g>
<!-- Node2 -->
<g id="Node000002" class="node">
<title>Node2</title>
<g id="a_Node000002"><a xlink:title=" ">
<polygon fill="white" stroke="#666666" points="242.5,-141.5 149.5,-141.5 149.5,-122.5 242.5,-122.5 242.5,-141.5"/>
<text text-anchor="middle" x="196" y="-129.5" font-family="Helvetica,sans-Serif" font-size="10.00">MonoBehaviour</text>
</a>
</g>
</g>
<!-- Node2&#45;&gt;Node1 -->
<g id="edge1_Node000001_Node000002" class="edge">
<title>Node2&#45;&gt;Node1</title>
<g id="a_edge1_Node000001_Node000002"><a xlink:title=" ">
<path fill="none" stroke="#63b8ff" d="M251.89,-120.34C261.59,-118.25 271.6,-116.08 281,-114 314.53,-106.59 351.8,-98.13 382.61,-91.08"/>
<polygon fill="#63b8ff" stroke="#63b8ff" points="250.97,-116.96 241.92,-122.48 252.44,-123.8 250.97,-116.96"/>
</a>
</g>
</g>
<!-- Node3 -->
<g id="Node000003" class="node">
<title>Node3</title>
<g id="a_Node000003"><a xlink:href="interfaceWolfstagInteractive_1_1WitWeaver_1_1IAnimatedPortraitSurface.html" target="_top" xlink:title="UI&#45;agnostic render target for animated portrait playback.">
<polygon fill="white" stroke="#666666" points="266,-104.5 126,-104.5 126,-85.5 266,-85.5 266,-104.5"/>
<text text-anchor="middle" x="196" y="-92.5" font-family="Helvetica,sans-Serif" font-size="10.00">IAnimatedPortraitSurface</text>
</a>
</g>
</g>
<!-- Node3&#45;&gt;Node1 -->
<g id="edge2_Node000001_Node000003" class="edge">
<title>Node3&#45;&gt;Node1</title>
<g id="a_edge2_Node000001_Node000003"><a xlink:title=" ">
<path fill="none" stroke="#63b8ff" d="M276.28,-89C301.89,-87.06 330.48,-84.9 356.87,-82.9"/>
<polygon fill="#63b8ff" stroke="#63b8ff" points="275.96,-85.51 266.25,-89.76 276.49,-92.49 275.96,-85.51"/>
</a>
</g>
</g>
<!-- Node4 -->
<g id="Node000004" class="node">
<title>Node4</title>
<g id="a_Node000004"><a xlink:title=" ">
<polygon fill="white" stroke="#666666" points="234,-67.5 158,-67.5 158,-48.5 234,-48.5 234,-67.5"/>
<text text-anchor="middle" x="196" y="-55.5" font-family="Helvetica,sans-Serif" font-size="10.00">UnityEngine</text>
</a>
</g>
</g>
<!-- Node4&#45;&gt;Node1 -->
<g id="edge3_Node000001_Node000004" class="edge">
<title>Node4&#45;&gt;Node1</title>
<g id="a_edge3_Node000001_Node000004"><a xlink:title=" ">
<path fill="none" stroke="#9a32cd" stroke-dasharray="5,2" d="M244.33,-61.39C276,-63.67 318.71,-66.73 356.83,-69.46"/>
<polygon fill="#9a32cd" stroke="#9a32cd" points="244.26,-57.88 234.04,-60.66 243.76,-64.86 244.26,-57.88"/>
</a>
</g>
<text text-anchor="middle" x="319" y="-71" font-family="Helvetica,sans-Serif" font-size="10.00" fill="grey"> _image</text>
</g>
<!-- Node5 -->
<g id="Node000005" class="node">
<title>Node5</title>
<g id="a_Node000005"><a xlink:href="interfaceWolfstagInteractive_1_1WitWeaver_1_1IAnimatedExpressionPlayback.html" target="_top" xlink:title="A live animation instance driving one surface.">
<polygon fill="white" stroke="#666666" points="281,-30 111,-30 111,0 281,0 281,-30"/>
<text text-anchor="start" x="119" y="-18" font-family="Helvetica,sans-Serif" font-size="10.00">WolfstagInteractive.WitWeaver.</text>
<text text-anchor="middle" x="196" y="-7" font-family="Helvetica,sans-Serif" font-size="10.00">IAnimatedExpressionPlayback</text>
</a>
</g>
</g>
<!-- Node5&#45;&gt;Node1 -->
<g id="edge4_Node000001_Node000005" class="edge">
<title>Node5&#45;&gt;Node1</title>
<g id="a_edge4_Node000001_Node000005"><a xlink:title=" ">
<path fill="none" stroke="#9a32cd" stroke-dasharray="5,2" d="M268.47,-32.37C305.58,-41.39 350.47,-52.3 386.08,-60.95"/>
<polygon fill="#9a32cd" stroke="#9a32cd" points="269.27,-28.96 258.72,-30 267.61,-35.76 269.27,-28.96"/>
</a>
</g>
<text text-anchor="middle" x="319" y="-52" font-family="Helvetica,sans-Serif" font-size="10.00" fill="grey"> _active</text>
</g>
<!-- Node6 -->
<g id="Node000006" class="node">
<title>Node6</title>
<g id="a_Node000006"><a xlink:title=" ">
<polygon fill="white" stroke="#666666" points="74,-24.5 0,-24.5 0,-5.5 74,-5.5 74,-24.5"/>
<text text-anchor="middle" x="37" y="-12.5" font-family="Helvetica,sans-Serif" font-size="10.00">IDisposable</text>
</a>
</g>
</g>
<!-- Node6&#45;&gt;Node5 -->
<g id="edge5_Node000005_Node000006" class="edge">
<title>Node6&#45;&gt;Node5</title>
<g id="a_edge5_Node000005_Node000006"><a xlink:title=" ">
<path fill="none" stroke="#63b8ff" d="M84.05,-15C92.55,-15 101.67,-15 110.89,-15"/>
<polygon fill="#63b8ff" stroke="#63b8ff" points="84.02,-11.5 74.02,-15 84.02,-18.5 84.02,-11.5"/>
</a>
</g>
</g>
</g>
</svg>
