<?xml version="1.0" encoding="UTF-8" standalone="no"?>
<!DOCTYPE svg PUBLIC "-//W3C//DTD SVG 1.1//EN"
 "http://www.w3.org/Graphics/SVG/1.1/DTD/svg11.dtd">
<!-- Generated by graphviz version 2.43.0 (0)
 -->
<!-- Title: WolfstagInteractive.WitWeaver.WitWeaverUnityAudioReference Pages: 1 -->
<svg width="181pt" height="148pt"
 viewBox="0.00 0.00 181.00 148.00" xmlns="http://www.w3.org/2000/svg" xmlns:xlink="http://www.w3.org/1999/xlink">
<g id="graph0" class="graph" transform="scale(1 1) rotate(0) translate(4 144)">
<title>WolfstagInteractive.WitWeaver.WitWeaverUnityAudioReference</title>
<!-- Node1 -->
<g id="Node000001" class="node">
<title>Node1</title>
<g id="a_Node000001"><a xlink:title="Built&#45;in Unity AudioClip&#45;based audio reference.">
<polygon fill="#999999" stroke="#666666" points="173,-30 0,-30 0,0 173,0 173,-30"/>
<text text-anchor="start" x="8" y="-18" font-family="Helvetica,sans-Serif" font-size="10.00">WolfstagInteractive.WitWeaver.</text>
<text text-anchor="middle" x="86.5" y="-7" font-family="Helvetica,sans-Serif" font-size="10.00">WitWeaverUnityAudioReference</text>
</a>
</g>
</g>
<!-- Node2 -->
<g id="Node000002" class="node">
<title>Node2</title>
<g id="a_Node000002"><a xlink:href="classWolfstagInteractive_1_1WitWeaver_1_1WitWeaverAudioReference.html" target="_top" xlink:title="Abstract base for audio references used in WitWeaver&#39;s audio manifest.">
<polygon fill="white" stroke="#666666" points="160,-85 13,-85 13,-66 160,-66 160,-85"/>
<text text-anchor="middle" x="86.5" y="-73" font-family="Helvetica,sans-Serif" font-size="10.00">WitWeaverAudioReference</text>
</a>
</g>
</g>
<!-- Node2&#45;&gt;Node1 -->
<g id="edge1_Node000001_Node000002" class="edge">
<title>Node2&#45;&gt;Node1</title>
<g id="a_edge1_Node000001_Node000002"><a xlink:title=" ">
<path fill="none" stroke="#63b8ff" d="M86.5,-55.65C86.5,-47.36 86.5,-37.78 86.5,-30.11"/>
<polygon fill="#63b8ff" stroke="#63b8ff" points="83,-55.87 86.5,-65.87 90,-55.87 83,-55.87"/>
</a>
</g>
</g>
<!-- Node3 -->
<g id="Node000003" class="node">
<title>Node3</title>
<g id="a_Node000003"><a xlink:title=" ">
<polygon fill="white" stroke="#666666" points="167.5,-140 5.5,-140 5.5,-121 167.5,-121 167.5,-140"/>
<text text-anchor="middle" x="86.5" y="-128" font-family="Helvetica,sans-Serif" font-size="10.00">UnityEngine::ScriptableObject</text>
</a>
</g>
</g>
<!-- Node3&#45;&gt;Node2 -->
<g id="edge2_Node000002_Node000003" class="edge">
<title>Node3&#45;&gt;Node2</title>
<g id="a_edge2_Node000002_Node000003"><a xlink:title=" ">
<path fill="none" stroke="#63b8ff" d="M86.5,-110.66C86.5,-101.93 86.5,-91.99 86.5,-85.09"/>
<polygon fill="#63b8ff" stroke="#63b8ff" points="83,-110.75 86.5,-120.75 90,-110.75 83,-110.75"/>
</a>
</g>
</g>
</g>
</svg>
