<?xml version="1.0" encoding="UTF-8" standalone="no"?>
<!DOCTYPE svg PUBLIC "-//W3C//DTD SVG 1.1//EN"
 "http://www.w3.org/Graphics/SVG/1.1/DTD/svg11.dtd">
<!-- Generated by graphviz version 2.43.0 (0)
 -->
<!-- Title: WolfstagInteractive.WitWeaver.WitWeaver Pages: 1 -->
<svg width="1332pt" height="697pt"
 viewBox="0.00 0.00 1332.00 697.33" xmlns="http://www.w3.org/2000/svg" xmlns:xlink="http://www.w3.org/1999/xlink">
<g id="graph0" class="graph" transform="scale(1 1) rotate(0) translate(4 693.33)">
<title>WolfstagInteractive.WitWeaver.WitWeaver</title>
<!-- Node1 -->
<g id="Node000001" class="node">
<title>Node1</title>
<g id="a_Node000001"><a xlink:title="Main conversation runner MonoBehaviour.">
<polygon fill="#999999" stroke="#666666" points="1324,-195.33 1154,-195.33 1154,-165.33 1324,-165.33 1324,-195.33"/>
<text text-anchor="start" x="1162" y="-183.33" font-family="Helvetica,sans-Serif" font-size="10.00">WolfstagInteractive.WitWeaver.</text>
<text text-anchor="middle" x="1239" y="-172.33" font-family="Helvetica,sans-Serif" font-size="10.00">WitWeaver</text>
</a>
</g>
</g>
<!-- Node2 -->
<g id="Node000002" class="node">
<title>Node2</title>
<g id="a_Node000002"><a xlink:title=" ">
<polygon fill="white" stroke="#666666" points="270.5,-517.83 177.5,-517.83 177.5,-498.83 270.5,-498.83 270.5,-517.83"/>
<text text-anchor="middle" x="224" y="-505.83" font-family="Helvetica,sans-Serif" font-size="10.00">MonoBehaviour</text>
</a>
</g>
</g>
<!-- Node2&#45;&gt;Node1 -->
<g id="edge1_Node000001_Node000002" class="edge">
<title>Node2&#45;&gt;Node1</title>
<g id="a_edge1_Node000001_Node000002"><a xlink:title=" ">
<path fill="none" stroke="#63b8ff" d="M234.03,-489.7C250.95,-454.42 288.04,-375.2 314,-306.33 323.37,-281.47 314.77,-269.55 332,-249.33 431.02,-133.16 490.46,-130.5 639,-95.33 854.01,-44.42 928.98,-30.1 1136,-107.33 1170.48,-120.19 1203.89,-147.89 1222.61,-165.22"/>
<polygon fill="#63b8ff" stroke="#63b8ff" points="230.83,-488.28 229.64,-498.81 237.13,-491.32 230.83,-488.28"/>
</a>
</g>
</g>
<!-- Node8 -->
<g id="Node000008" class="node">
<title>Node8</title>
<g id="a_Node000008"><a xlink:href="classWolfstagInteractive_1_1WitWeaver_1_1WitWeaverUIFoundation.html" target="_top" xlink:title="Used as a basis of any UI that can be assigned in the inspector that includes all the base functions ...">
<polygon fill="white" stroke="#666666" points="998,-576.33 828,-576.33 828,-546.33 998,-546.33 998,-576.33"/>
<text text-anchor="start" x="836" y="-564.33" font-family="Helvetica,sans-Serif" font-size="10.00">WolfstagInteractive.WitWeaver.</text>
<text text-anchor="middle" x="913" y="-553.33" font-family="Helvetica,sans-Serif" font-size="10.00">WitWeaverUIFoundation</text>
</a>
</g>
</g>
<!-- Node2&#45;&gt;Node8 -->
<g id="edge10_Node000008_Node000002" class="edge">
<title>Node2&#45;&gt;Node8</title>
<g id="a_edge10_Node000008_Node000002"><a xlink:title=" ">
<path fill="none" stroke="#63b8ff" d="M273.38,-520.16C318.9,-530.72 389.13,-545.53 451,-552.33 581.89,-566.71 734.92,-566.33 827.59,-564.21"/>
<polygon fill="#63b8ff" stroke="#63b8ff" points="274.03,-516.72 263.49,-517.85 272.43,-523.54 274.03,-516.72"/>
</a>
</g>
</g>
<!-- Node10 -->
<g id="Node000010" class="node">
<title>Node10</title>
<g id="a_Node000010"><a xlink:href="classWolfstagInteractive_1_1WitWeaver_1_1WitWeaver.html" target="_top" xlink:title="Main conversation runner MonoBehaviour.">
<polygon fill="white" stroke="#666666" points="1324,-462.33 1154,-462.33 1154,-432.33 1324,-432.33 1324,-462.33"/>
<text text-anchor="start" x="1162" y="-450.33" font-family="Helvetica,sans-Serif" font-size="10.00">WolfstagInteractive.WitWeaver.</text>
<text text-anchor="middle" x="1239" y="-439.33" font-family="Helvetica,sans-Serif" font-size="10.00">WitWeaver</text>
</a>
</g>
</g>
<!-- Node2&#45;&gt;Node10 -->
<g id="edge13_Node000010_Node000002" class="edge">
<title>Node2&#45;&gt;Node10</title>
<g id="a_edge13_Node000010_Node000002"><a xlink:title=" ">
<path fill="none" stroke="#63b8ff" d="M280.69,-507.8C410.17,-506.38 741.47,-501.53 1018,-487.33 1070.53,-484.63 1084.31,-488.03 1136,-478.33 1156.01,-474.57 1177.66,-468.32 1195.84,-462.41"/>
<polygon fill="#63b8ff" stroke="#63b8ff" points="280.58,-504.31 270.62,-507.91 280.66,-511.31 280.58,-504.31"/>
</a>
</g>
</g>
<!-- Node16 -->
<g id="Node000016" class="node">
<title>Node16</title>
<g id="a_Node000016"><a xlink:href="classWolfstagInteractive_1_1WitWeaver_1_1WitWeaverDialogueHistoryUI.html" target="_top" xlink:title=" ">
<polygon fill="white" stroke="#666666" points="621,-629.33 451,-629.33 451,-599.33 621,-599.33 621,-629.33"/>
<text text-anchor="start" x="459" y="-617.33" font-family="Helvetica,sans-Serif" font-size="10.00">WolfstagInteractive.WitWeaver.</text>
<text text-anchor="middle" x="536" y="-606.33" font-family="Helvetica,sans-Serif" font-size="10.00">WitWeaverDialogueHistoryUI</text>
</a>
</g>
</g>
<!-- Node2&#45;&gt;Node16 -->
<g id="edge27_Node000016_Node000002" class="edge">
<title>Node2&#45;&gt;Node16</title>
<g id="a_edge27_Node000016_Node000002"><a xlink:title=" ">
<path fill="none" stroke="#63b8ff" d="M242.96,-524.9C263.06,-542.43 297.36,-569.44 332,-583.33 369.39,-598.33 413.33,-606.12 450.74,-610.16"/>
<polygon fill="#63b8ff" stroke="#63b8ff" points="245.05,-522.07 235.26,-518.03 240.39,-527.3 245.05,-522.07"/>
</a>
</g>
</g>
<!-- Node3 -->
<g id="Node000003" class="node">
<title>Node3</title>
<g id="a_Node000003"><a xlink:href="interfaceWolfstagInteractive_1_1WitWeaver_1_1IWitWeaverRunner.html" target="_top" xlink:title="Minimal interface implemented by WitWeaver.">
<polygon fill="white" stroke="#666666" points="966.5,-327.83 859.5,-327.83 859.5,-308.83 966.5,-308.83 966.5,-327.83"/>
<text text-anchor="middle" x="913" y="-315.83" font-family="Helvetica,sans-Serif" font-size="10.00">IWitWeaverRunner</text>
</a>
</g>
</g>
<!-- Node3&#45;&gt;Node1 -->
<g id="edge2_Node000001_Node000003" class="edge">
<title>Node3&#45;&gt;Node1</title>
<g id="a_edge2_Node000001_Node000003"><a xlink:title=" ">
<path fill="none" stroke="#63b8ff" d="M973.74,-305.54C990.05,-299.43 1006.4,-290.46 1018,-277.33 1039.27,-253.25 1011.98,-228.66 1036,-207.33 1053.43,-191.86 1106.42,-185.16 1153.76,-182.3"/>
<polygon fill="#63b8ff" stroke="#63b8ff" points="972.5,-302.26 964.18,-308.82 974.77,-308.89 972.5,-302.26"/>
</a>
</g>
</g>
<!-- Node3&#45;&gt;Node10 -->
<g id="edge14_Node000010_Node000003" class="edge">
<title>Node3&#45;&gt;Node10</title>
<g id="a_edge14_Node000010_Node000003"><a xlink:title=" ">
<path fill="none" stroke="#63b8ff" d="M976.55,-328.93C991.05,-333.33 1005.79,-339.55 1018,-348.33 1029.41,-356.53 1024.55,-366.17 1036,-374.33 1073.59,-401.11 1092.55,-386.75 1136,-402.33 1160.23,-411.02 1186.82,-422.82 1206.77,-432.16"/>
<polygon fill="#63b8ff" stroke="#63b8ff" points="977.16,-325.46 966.59,-326.16 975.29,-332.21 977.16,-325.46"/>
</a>
</g>
</g>
<!-- Node4 -->
<g id="Node000004" class="node">
<title>Node4</title>
<g id="a_Node000004"><a xlink:href="classWolfstagInteractive_1_1WitWeaver_1_1WitWeaverConversationData.html" target="_top" xlink:title=" ">
<polygon fill="white" stroke="#666666" points="309,-128.33 139,-128.33 139,-98.33 309,-98.33 309,-128.33"/>
<text text-anchor="start" x="147" y="-116.33" font-family="Helvetica,sans-Serif" font-size="10.00">WolfstagInteractive.WitWeaver.</text>
<text text-anchor="middle" x="224" y="-105.33" font-family="Helvetica,sans-Serif" font-size="10.00">WitWeaverConversationData</text>
</a>
</g>
</g>
<!-- Node4&#45;&gt;Node1 -->
<g id="edge3_Node000001_Node000004" class="edge">
<title>Node4&#45;&gt;Node1</title>
<g id="a_edge3_Node000001_Node000004"><a xlink:title=" ">
<path fill="none" stroke="#9a32cd" stroke-dasharray="5,2" d="M319.46,-108.9C520.37,-100.39 984.1,-85.92 1136,-125.33 1166.38,-133.21 1197.61,-151.91 1217.37,-165.32"/>
<polygon fill="#9a32cd" stroke="#9a32cd" points="319.06,-105.41 309.22,-109.33 319.36,-112.4 319.06,-105.41"/>
</a>
</g>
<text text-anchor="middle" x="714.5" y="-103.33" font-family="Helvetica,sans-Serif" font-size="10.00" fill="grey"> ConversationData</text>
</g>
<!-- Node6 -->
<g id="Node000006" class="node">
<title>Node6</title>
<g id="a_Node000006"><a xlink:href="classWolfstagInteractive_1_1WitWeaver_1_1WitWeaverAudioManifest.html" target="_top" xlink:title="Maps dialogue line IDs to audio clips or middleware references, supporting Unity AudioSource,...">
<polygon fill="white" stroke="#666666" points="621,-37.33 451,-37.33 451,-7.33 621,-7.33 621,-37.33"/>
<text text-anchor="start" x="459" y="-25.33" font-family="Helvetica,sans-Serif" font-size="10.00">WolfstagInteractive.WitWeaver.</text>
<text text-anchor="middle" x="536" y="-14.33" font-family="Helvetica,sans-Serif" font-size="10.00">WitWeaverAudioManifest</text>
</a>
</g>
</g>
<!-- Node4&#45;&gt;Node6 -->
<g id="edge7_Node000006_Node000004" class="edge">
<title>Node4&#45;&gt;Node6</title>
<g id="a_edge7_Node000006_Node000004"><a xlink:title=" ">
<path fill="none" stroke="#9a32cd" stroke-dasharray="5,2" d="M243.36,-90.63C262.73,-68.66 295.47,-36.75 332,-23.33 369.38,-9.59 413.31,-7.79 450.73,-10.06"/>
<polygon fill="#9a32cd" stroke="#9a32cd" points="240.7,-88.36 236.85,-98.23 246.02,-92.92 240.7,-88.36"/>
</a>
</g>
<text text-anchor="middle" x="382.5" y="-26.33" font-family="Helvetica,sans-Serif" font-size="10.00" fill="grey"> SourceConversation</text>
</g>
<!-- Node4&#45;&gt;Node10 -->
<g id="edge15_Node000010_Node000004" class="edge">
<title>Node4&#45;&gt;Node10</title>
<g id="a_edge15_Node000010_Node000004"><a xlink:title=" ">
<path fill="none" stroke="#9a32cd" stroke-dasharray="5,2" d="M245.16,-136.37C264.35,-159.02 293.31,-195.08 314,-229.33 323.87,-245.67 317.69,-255.69 332,-268.33 572.81,-481.14 716.76,-396.44 1036,-433.33 1074.59,-437.79 1117.5,-441.01 1153.81,-443.22"/>
<polygon fill="#9a32cd" stroke="#9a32cd" points="247.72,-133.99 238.56,-128.66 242.4,-138.54 247.72,-133.99"/>
</a>
</g>
<text text-anchor="middle" x="714.5" y="-425.33" font-family="Helvetica,sans-Serif" font-size="10.00" fill="grey"> ConversationData</text>
</g>
<!-- Node5 -->
<g id="Node000005" class="node">
<title>Node5</title>
<g id="a_Node000005"><a xlink:title=" ">
<polygon fill="white" stroke="#666666" points="97,-163.83 0,-163.83 0,-144.83 97,-144.83 97,-163.83"/>
<text text-anchor="middle" x="48.5" y="-151.83" font-family="Helvetica,sans-Serif" font-size="10.00">ScriptableObject</text>
</a>
</g>
</g>
<!-- Node5&#45;&gt;Node4 -->
<g id="edge4_Node000004_Node000005" class="edge">
<title>Node5&#45;&gt;Node4</title>
<g id="a_edge4_Node000004_Node000005"><a xlink:title=" ">
<path fill="none" stroke="#63b8ff" d="M99.49,-142.52C118.11,-138.12 139.5,-133.06 159.2,-128.41"/>
<polygon fill="#63b8ff" stroke="#63b8ff" points="98.67,-139.11 89.74,-144.82 100.28,-145.93 98.67,-139.11"/>
</a>
</g>
</g>
<!-- Node5&#45;&gt;Node6 -->
<g id="edge6_Node000006_Node000005" class="edge">
<title>Node5&#45;&gt;Node6</title>
<g id="a_edge6_Node000006_Node000005"><a xlink:title=" ">
<path fill="none" stroke="#63b8ff" d="M67.84,-138.01C84.33,-123.88 109.64,-103.55 134,-89.33 216.55,-41.13 238.33,-24.38 332,-5.33 376.88,3.8 428.3,-0.66 468.16,-7.29"/>
<polygon fill="#63b8ff" stroke="#63b8ff" points="65.32,-135.56 60.07,-144.76 69.91,-140.84 65.32,-135.56"/>
</a>
</g>
</g>
<!-- Node14 -->
<g id="Node000014" class="node">
<title>Node14</title>
<g id="a_Node000014"><a xlink:href="classWolfstagInteractive_1_1WitWeaver_1_1WitWeaverSettings.html" target="_top" xlink:title="Global runtime settings ScriptableObject for WitWeaver.">
<polygon fill="white" stroke="#666666" points="309,-268.33 139,-268.33 139,-238.33 309,-238.33 309,-268.33"/>
<text text-anchor="start" x="147" y="-256.33" font-family="Helvetica,sans-Serif" font-size="10.00">WolfstagInteractive.WitWeaver.</text>
<text text-anchor="middle" x="224" y="-245.33" font-family="Helvetica,sans-Serif" font-size="10.00">WitWeaverSettings</text>
</a>
</g>
</g>
<!-- Node5&#45;&gt;Node14 -->
<g id="edge23_Node000014_Node000005" class="edge">
<title>Node5&#45;&gt;Node14</title>
<g id="a_edge23_Node000014_Node000005"><a xlink:title=" ">
<path fill="none" stroke="#63b8ff" d="M75.4,-169.11C108.05,-187.74 163.88,-219.59 196.71,-238.33"/>
<polygon fill="#63b8ff" stroke="#63b8ff" points="76.87,-165.92 66.45,-164 73.4,-172 76.87,-165.92"/>
</a>
</g>
</g>
<!-- Node18 -->
<g id="Node000018" class="node">
<title>Node18</title>
<g id="a_Node000018"><a xlink:href="classWolfstagInteractive_1_1WitWeaver_1_1WitWeaverHistoryRendererProfile.html" target="_top" xlink:title=" ">
<polygon fill="white" stroke="#666666" points="314,-689.33 134,-689.33 134,-659.33 314,-659.33 314,-689.33"/>
<text text-anchor="start" x="142" y="-677.33" font-family="Helvetica,sans-Serif" font-size="10.00">WolfstagInteractive.WitWeaver.</text>
<text text-anchor="middle" x="224" y="-666.33" font-family="Helvetica,sans-Serif" font-size="10.00">WitWeaverHistoryRendererProfile</text>
</a>
</g>
</g>
<!-- Node5&#45;&gt;Node18 -->
<g id="edge31_Node000018_Node000005" class="edge">
<title>Node5&#45;&gt;Node18</title>
<g id="a_edge31_Node000018_Node000005"><a xlink:title=" ">
<path fill="none" stroke="#63b8ff" d="M50.12,-174.39C53.12,-258.12 68.74,-578.58 134,-650.33 137.12,-653.76 140.68,-656.73 144.53,-659.28"/>
<polygon fill="#63b8ff" stroke="#63b8ff" points="53.61,-174.08 49.78,-164.2 46.62,-174.31 53.61,-174.08"/>
</a>
</g>
</g>
<!-- Node6&#45;&gt;Node4 -->
<g id="edge5_Node000004_Node000006" class="edge">
<title>Node6&#45;&gt;Node4</title>
<g id="a_edge5_Node000004_Node000006"><a xlink:title=" ">
<path fill="none" stroke="#9a32cd" stroke-dasharray="5,2" d="M440.86,-35.7C397.95,-42.37 352.27,-50.47 332,-57.33 301.81,-67.55 269.75,-85.38 248.68,-98.17"/>
<polygon fill="#9a32cd" stroke="#9a32cd" points="441.47,-39.14 450.82,-34.16 440.41,-32.22 441.47,-39.14"/>
</a>
</g>
<text text-anchor="middle" x="382.5" y="-60.33" font-family="Helvetica,sans-Serif" font-size="10.00" fill="grey"> AudioManifest</text>
</g>
<!-- Node7 -->
<g id="Node000007" class="node">
<title>Node7</title>
<g id="a_Node000007"><a xlink:href="interfaceWolfstagInteractive_1_1WitWeaver_1_1IWitWeaverInput.html" target="_top" xlink:title="Input strategy interface.">
<polygon fill="white" stroke="#666666" points="998,-478.33 828,-478.33 828,-448.33 998,-448.33 998,-478.33"/>
<text text-anchor="start" x="836" y="-466.33" font-family="Helvetica,sans-Serif" font-size="10.00">WolfstagInteractive.WitWeaver.</text>
<text text-anchor="middle" x="913" y="-455.33" font-family="Helvetica,sans-Serif" font-size="10.00">IWitWeaverInput</text>
</a>
</g>
</g>
<!-- Node7&#45;&gt;Node1 -->
<g id="edge8_Node000001_Node000007" class="edge">
<title>Node7&#45;&gt;Node1</title>
<g id="a_edge8_Node000001_Node000007"><a xlink:title=" ">
<path fill="none" stroke="#9a32cd" stroke-dasharray="5,2" d="M961.86,-443.72C982.44,-432.82 1004.77,-417.18 1018,-396.33 1050.44,-345.22 995.25,-306.09 1036,-261.33 1066.7,-227.61 1093.51,-254.89 1136,-238.33 1165.04,-227.01 1195.8,-208.51 1215.85,-195.45"/>
<polygon fill="#9a32cd" stroke="#9a32cd" points="960.23,-440.62 952.87,-448.25 963.38,-446.87 960.23,-440.62"/>
</a>
</g>
<text text-anchor="middle" x="1086" y="-264.33" font-family="Helvetica,sans-Serif" font-size="10.00" fill="grey"> Input</text>
</g>
<!-- Node7&#45;&gt;Node10 -->
<g id="edge16_Node000010_Node000007" class="edge">
<title>Node7&#45;&gt;Node10</title>
<g id="a_edge16_Node000010_Node000007"><a xlink:title=" ">
<path fill="none" stroke="#9a32cd" stroke-dasharray="5,2" d="M1008.29,-462.97C1047.78,-462.36 1094.15,-461.05 1136,-458.33 1141.87,-457.95 1147.91,-457.48 1154,-456.96"/>
<polygon fill="#9a32cd" stroke="#9a32cd" points="1008.09,-459.47 998.14,-463.12 1008.19,-466.47 1008.09,-459.47"/>
</a>
</g>
<text text-anchor="middle" x="1086" y="-466.33" font-family="Helvetica,sans-Serif" font-size="10.00" fill="grey"> Input</text>
</g>
<!-- Node8&#45;&gt;Node1 -->
<g id="edge9_Node000001_Node000008" class="edge">
<title>Node8&#45;&gt;Node1</title>
<g id="a_edge9_Node000001_Node000008"><a xlink:title=" ">
<path fill="none" stroke="#9a32cd" stroke-dasharray="5,2" d="M957.77,-541.43C979.67,-529.1 1004.35,-511.04 1018,-487.33 1039.6,-449.81 1007.19,-325.65 1036,-293.33 1066.22,-259.43 1095.52,-292.91 1136,-272.33 1173.84,-253.09 1208.37,-216.13 1225.9,-195.39"/>
<polygon fill="#9a32cd" stroke="#9a32cd" points="956.06,-538.38 948.92,-546.21 959.38,-544.54 956.06,-538.38"/>
</a>
</g>
<text text-anchor="middle" x="1086" y="-296.33" font-family="Helvetica,sans-Serif" font-size="10.00" fill="grey"> ConversationUI</text>
</g>
<!-- Node8&#45;&gt;Node10 -->
<g id="edge17_Node000010_Node000008" class="edge">
<title>Node8&#45;&gt;Node10</title>
<g id="a_edge17_Node000010_Node000008"><a xlink:title=" ">
<path fill="none" stroke="#9a32cd" stroke-dasharray="5,2" d="M1008.25,-572.12C1049.12,-573.07 1096.54,-568.95 1136,-551.33 1178.72,-532.25 1212.96,-486.43 1228.67,-462.49"/>
<polygon fill="#9a32cd" stroke="#9a32cd" points="1008.12,-568.62 998,-571.78 1007.88,-575.61 1008.12,-568.62"/>
</a>
</g>
<text text-anchor="middle" x="1086" y="-574.33" font-family="Helvetica,sans-Serif" font-size="10.00" fill="grey"> ConversationUI</text>
</g>
<!-- Node9 -->
<g id="Node000009" class="node">
<title>Node9</title>
<g id="a_Node000009"><a xlink:href="interfaceWolfstagInteractive_1_1WitWeaver_1_1IUIFoundation.html" target="_top" xlink:title="Contract between the WitWeaver runner and a dialogue UI implementation.">
<polygon fill="white" stroke="#666666" points="578,-542.83 494,-542.83 494,-523.83 578,-523.83 578,-542.83"/>
<text text-anchor="middle" x="536" y="-530.83" font-family="Helvetica,sans-Serif" font-size="10.00">IUIFoundation</text>
</a>
</g>
</g>
<!-- Node9&#45;&gt;Node8 -->
<g id="edge11_Node000008_Node000009" class="edge">
<title>Node9&#45;&gt;Node8</title>
<g id="a_edge11_Node000008_Node000009"><a xlink:title=" ">
<path fill="none" stroke="#63b8ff" d="M588.46,-537.17C650.1,-541.77 754.21,-549.55 827.65,-555.03"/>
<polygon fill="#63b8ff" stroke="#63b8ff" points="588.44,-533.66 578.2,-536.41 587.92,-540.64 588.44,-533.66"/>
</a>
</g>
</g>
<!-- Node10&#45;&gt;Node8 -->
<g id="edge12_Node000008_Node000010" class="edge">
<title>Node10&#45;&gt;Node8</title>
<g id="a_edge12_Node000008_Node000010"><a xlink:title=" ">
<path fill="none" stroke="#9a32cd" stroke-dasharray="5,2" d="M1213.03,-468.79C1193.36,-484.57 1164.58,-505.3 1136,-517.33 1123.05,-522.78 1055.3,-535.87 998.01,-546.37"/>
<polygon fill="#9a32cd" stroke="#9a32cd" points="1215.36,-471.41 1220.88,-462.36 1210.92,-465.99 1215.36,-471.41"/>
</a>
</g>
<text text-anchor="middle" x="1086" y="-540.33" font-family="Helvetica,sans-Serif" font-size="10.00" fill="grey"> WitWeaverInstance</text>
</g>
<!-- Node11 -->
<g id="Node000011" class="node">
<title>Node11</title>
<g id="a_Node000011"><a xlink:href="interfaceWolfstagInteractive_1_1WitWeaver_1_1IWitWeaverAudioProvider.html" target="_top" xlink:title="Interface for audio playback backends.">
<polygon fill="white" stroke="#666666" points="998,-387.33 828,-387.33 828,-357.33 998,-357.33 998,-387.33"/>
<text text-anchor="start" x="836" y="-375.33" font-family="Helvetica,sans-Serif" font-size="10.00">WolfstagInteractive.WitWeaver.</text>
<text text-anchor="middle" x="913" y="-364.33" font-family="Helvetica,sans-Serif" font-size="10.00">IWitWeaverAudioProvider</text>
</a>
</g>
</g>
<!-- Node11&#45;&gt;Node1 -->
<g id="edge32_Node000001_Node000011" class="edge">
<title>Node11&#45;&gt;Node1</title>
<g id="a_edge32_Node000001_Node000011"><a xlink:title=" ">
<path fill="none" stroke="#9a32cd" stroke-dasharray="5,2" d="M998.41,-352.54C1005.78,-348.17 1012.51,-342.84 1018,-336.33 1049.65,-298.79 1002.38,-263.11 1036,-227.33 1067.23,-194.09 1091.58,-214.66 1136,-204.33 1148.4,-201.44 1161.65,-198.34 1174.35,-195.36"/>
<polygon fill="#9a32cd" stroke="#9a32cd" points="996.71,-349.48 989.5,-357.24 999.98,-355.67 996.71,-349.48"/>
</a>
</g>
<text text-anchor="middle" x="1086" y="-230.33" font-family="Helvetica,sans-Serif" font-size="10.00" fill="grey"> _audioProvider</text>
</g>
<!-- Node11&#45;&gt;Node10 -->
<g id="edge18_Node000010_Node000011" class="edge">
<title>Node11&#45;&gt;Node10</title>
<g id="a_edge18_Node000010_Node000011"><a xlink:title=" ">
<path fill="none" stroke="#9a32cd" stroke-dasharray="5,2" d="M992.59,-389.65C1035.09,-399.11 1088.47,-411.15 1136,-422.33 1149.4,-425.48 1163.77,-428.95 1177.37,-432.27"/>
<polygon fill="#9a32cd" stroke="#9a32cd" points="993.1,-386.18 982.58,-387.43 991.58,-393.01 993.1,-386.18"/>
</a>
</g>
<text text-anchor="middle" x="1086" y="-425.33" font-family="Helvetica,sans-Serif" font-size="10.00" fill="grey"> _audioProvider</text>
</g>
<!-- Node12 -->
<g id="Node000012" class="node">
<title>Node12</title>
<g id="a_Node000012"><a xlink:href="classWolfstagInteractive_1_1WitWeaver_1_1WitWeaverDialogueLocalizationHandler.html" target="_top" xlink:title=" ">
<polygon fill="white" stroke="#666666" points="1018,-268.33 808,-268.33 808,-238.33 1018,-238.33 1018,-268.33"/>
<text text-anchor="start" x="816" y="-256.33" font-family="Helvetica,sans-Serif" font-size="10.00">WolfstagInteractive.WitWeaver.</text>
<text text-anchor="middle" x="913" y="-245.33" font-family="Helvetica,sans-Serif" font-size="10.00">WitWeaverDialogueLocalizationHandler</text>
</a>
</g>
</g>
<!-- Node12&#45;&gt;Node1 -->
<g id="edge33_Node000001_Node000012" class="edge">
<title>Node12&#45;&gt;Node1</title>
<g id="a_edge33_Node000001_Node000012"><a xlink:title=" ">
<path fill="none" stroke="#9a32cd" stroke-dasharray="5,2" d="M949.51,-233.04C970.23,-220.58 996.45,-203.72 1018,-186.33 1026.81,-179.23 1025.55,-172.66 1036,-168.33 1084.36,-148.3 1144.86,-155.65 1186.98,-165.29"/>
<polygon fill="#9a32cd" stroke="#9a32cd" points="947.51,-230.16 940.7,-238.27 951.09,-236.18 947.51,-230.16"/>
</a>
</g>
<text text-anchor="middle" x="1086" y="-171.33" font-family="Helvetica,sans-Serif" font-size="10.00" fill="grey"> LocalizationHandler</text>
</g>
<!-- Node12&#45;&gt;Node10 -->
<g id="edge19_Node000010_Node000012" class="edge">
<title>Node12&#45;&gt;Node10</title>
<g id="a_edge19_Node000010_Node000012"><a xlink:title=" ">
<path fill="none" stroke="#9a32cd" stroke-dasharray="5,2" d="M977.41,-272.5C992.07,-279.2 1006.68,-287.98 1018,-299.33 1032.05,-313.42 1020.55,-327.78 1036,-340.33 1071.25,-368.96 1095.18,-341.42 1136,-361.33 1172.43,-379.1 1206.72,-412.76 1224.77,-432.28"/>
<polygon fill="#9a32cd" stroke="#9a32cd" points="978.37,-269.11 967.8,-268.4 975.62,-275.54 978.37,-269.11"/>
</a>
</g>
<text text-anchor="middle" x="1086" y="-364.33" font-family="Helvetica,sans-Serif" font-size="10.00" fill="grey"> LocalizationHandler</text>
</g>
<!-- Node13 -->
<g id="Node000013" class="node">
<title>Node13</title>
<g id="a_Node000013"><a xlink:href="classWolfstagInteractive_1_1WitWeaver_1_1WitWeaverLanguageManager.html" target="_top" xlink:title=" ">
<polygon fill="white" stroke="#666666" points="621,-268.33 451,-268.33 451,-238.33 621,-238.33 621,-268.33"/>
<text text-anchor="start" x="459" y="-256.33" font-family="Helvetica,sans-Serif" font-size="10.00">WolfstagInteractive.WitWeaver.</text>
<text text-anchor="middle" x="536" y="-245.33" font-family="Helvetica,sans-Serif" font-size="10.00">WitWeaverLanguageManager</text>
</a>
</g>
</g>
<!-- Node13&#45;&gt;Node12 -->
<g id="edge20_Node000012_Node000013" class="edge">
<title>Node13&#45;&gt;Node12</title>
<g id="a_edge20_Node000012_Node000013"><a xlink:title=" ">
<path fill="none" stroke="#9a32cd" stroke-dasharray="5,2" d="M631.36,-253.33C685.06,-253.33 752.43,-253.33 807.69,-253.33"/>
<polygon fill="#9a32cd" stroke="#9a32cd" points="631.16,-249.83 621.16,-253.33 631.16,-256.83 631.16,-249.83"/>
</a>
</g>
<text text-anchor="middle" x="714.5" y="-256.33" font-family="Helvetica,sans-Serif" font-size="10.00" fill="grey"> _witWeaverLanguageManager</text>
</g>
<!-- Node13&#45;&gt;Node13 -->
<g id="edge21_Node000013_Node000013" class="edge">
<title>Node13&#45;&gt;Node13</title>
<g id="a_edge21_Node000013_Node000013"><a xlink:title=" ">
<path fill="none" stroke="#9a32cd" stroke-dasharray="5,2" d="M509.39,-278.93C513.03,-283.3 521.9,-286.33 536,-286.33 559.75,-286.33 568.66,-277.74 562.72,-268.6"/>
<polygon fill="#9a32cd" stroke="#9a32cd" points="512.89,-278.57 509.28,-268.6 505.89,-278.64 512.89,-278.57"/>
</a>
</g>
<text text-anchor="middle" x="536" y="-289.33" font-family="Helvetica,sans-Serif" font-size="10.00" fill="grey"> _instance</text>
</g>
<!-- Node14&#45;&gt;Node13 -->
<g id="edge22_Node000013_Node000014" class="edge">
<title>Node14&#45;&gt;Node13</title>
<g id="a_edge22_Node000013_Node000014"><a xlink:title=" ">
<path fill="none" stroke="#9a32cd" stroke-dasharray="5,2" d="M319.52,-253.33C361.44,-253.33 410.36,-253.33 450.99,-253.33"/>
<polygon fill="#9a32cd" stroke="#9a32cd" points="319.3,-249.83 309.3,-253.33 319.3,-256.83 319.3,-249.83"/>
</a>
</g>
<text text-anchor="middle" x="382.5" y="-256.33" font-family="Helvetica,sans-Serif" font-size="10.00" fill="grey"> _witWeaverSettings</text>
</g>
<!-- Node14&#45;&gt;Node14 -->
<g id="edge24_Node000014_Node000014" class="edge">
<title>Node14&#45;&gt;Node14</title>
<g id="a_edge24_Node000014_Node000014"><a xlink:title=" ">
<path fill="none" stroke="#9a32cd" stroke-dasharray="5,2" d="M205.1,-278.93C207.68,-283.3 213.98,-286.33 224,-286.33 240.88,-286.33 247.2,-277.74 242.98,-268.6"/>
<polygon fill="#9a32cd" stroke="#9a32cd" points="208.59,-278.58 205.02,-268.6 201.59,-278.63 208.59,-278.58"/>
</a>
</g>
<text text-anchor="middle" x="224" y="-289.33" font-family="Helvetica,sans-Serif" font-size="10.00" fill="grey"> _instance</text>
</g>
<!-- Node14&#45;&gt;Node16 -->
<g id="edge28_Node000016_Node000014" class="edge">
<title>Node14&#45;&gt;Node16</title>
<g id="a_edge28_Node000016_Node000014"><a xlink:title=" ">
<path fill="none" stroke="#9a32cd" stroke-dasharray="5,2" d="M236.99,-277.97C255.1,-314.01 291.61,-382.47 332,-434.33 377.77,-493.09 394.44,-503.86 451,-552.33 470.96,-569.43 495.25,-587.05 512.57,-599.11"/>
<polygon fill="#9a32cd" stroke="#9a32cd" points="239.97,-276.1 232.39,-268.7 233.71,-279.21 239.97,-276.1"/>
</a>
</g>
<text text-anchor="middle" x="382.5" y="-539.33" font-family="Helvetica,sans-Serif" font-size="10.00" fill="grey"> witWeaverSettings</text>
</g>
<!-- Node15 -->
<g id="Node000015" class="node">
<title>Node15</title>
<g id="a_Node000015"><a xlink:href="interfaceWolfstagInteractive_1_1WitWeaver_1_1IConversationContext.html" target="_top" xlink:title="Provides optional runtime context for branch evaluation.">
<polygon fill="white" stroke="#666666" points="998,-177.33 828,-177.33 828,-147.33 998,-147.33 998,-177.33"/>
<text text-anchor="start" x="836" y="-165.33" font-family="Helvetica,sans-Serif" font-size="10.00">WolfstagInteractive.WitWeaver.</text>
<text text-anchor="middle" x="913" y="-154.33" font-family="Helvetica,sans-Serif" font-size="10.00">IConversationContext</text>
</a>
</g>
</g>
<!-- Node15&#45;&gt;Node1 -->
<g id="edge34_Node000001_Node000015" class="edge">
<title>Node15&#45;&gt;Node1</title>
<g id="a_edge34_Node000001_Node000015"><a xlink:title=" ">
<path fill="none" stroke="#9a32cd" stroke-dasharray="5,2" d="M971.06,-144.65C1016.18,-133.18 1080.57,-122.41 1136,-134.33 1163.54,-140.25 1192.6,-154.22 1212.63,-165.22"/>
<polygon fill="#9a32cd" stroke="#9a32cd" points="969.95,-141.32 961.17,-147.25 971.73,-148.09 969.95,-141.32"/>
</a>
</g>
<text text-anchor="middle" x="1086" y="-137.33" font-family="Helvetica,sans-Serif" font-size="10.00" fill="grey"> _context</text>
</g>
<!-- Node15&#45;&gt;Node10 -->
<g id="edge25_Node000010_Node000015" class="edge">
<title>Node15&#45;&gt;Node10</title>
<g id="a_edge25_Node000010_Node000015"><a xlink:title=" ">
<path fill="none" stroke="#9a32cd" stroke-dasharray="5,2" d="M960.03,-182.05C980.66,-193.1 1003.55,-208.84 1018,-229.33 1038.25,-258.05 1010.87,-281.76 1036,-306.33 1068.47,-338.08 1096.97,-304.11 1136,-327.33 1180.18,-353.61 1214.48,-406.01 1229.58,-431.99"/>
<polygon fill="#9a32cd" stroke="#9a32cd" points="961.54,-178.89 951.05,-177.45 958.35,-185.12 961.54,-178.89"/>
</a>
</g>
<text text-anchor="middle" x="1086" y="-330.33" font-family="Helvetica,sans-Serif" font-size="10.00" fill="grey"> _context</text>
</g>
<!-- Node16&#45;&gt;Node8 -->
<g id="edge26_Node000008_Node000016" class="edge">
<title>Node16&#45;&gt;Node8</title>
<g id="a_edge26_Node000008_Node000016"><a xlink:title=" ">
<path fill="none" stroke="#9a32cd" stroke-dasharray="5,2" d="M631.28,-605.34C678.97,-600.33 737.69,-593.46 790,-585.33 806.42,-582.78 824.01,-579.59 840.56,-576.38"/>
<polygon fill="#9a32cd" stroke="#9a32cd" points="630.86,-601.86 621.27,-606.38 631.58,-608.82 630.86,-601.86"/>
</a>
</g>
<text text-anchor="middle" x="714.5" y="-607.33" font-family="Helvetica,sans-Serif" font-size="10.00" fill="grey"> WitWeaverDialogueHistoryUI</text>
</g>
<!-- Node17 -->
<g id="Node000017" class="node">
<title>Node17</title>
<g id="a_Node000017"><a xlink:href="interfaceWolfstagInteractive_1_1WitWeaver_1_1IWitWeaverHistoryRenderer.html" target="_top" xlink:title="Base contract for any dialogue history renderer.">
<polygon fill="white" stroke="#666666" points="309,-641.33 139,-641.33 139,-611.33 309,-611.33 309,-641.33"/>
<text text-anchor="start" x="147" y="-629.33" font-family="Helvetica,sans-Serif" font-size="10.00">WolfstagInteractive.WitWeaver.</text>
<text text-anchor="middle" x="224" y="-618.33" font-family="Helvetica,sans-Serif" font-size="10.00">IWitWeaverHistoryRenderer</text>
</a>
</g>
</g>
<!-- Node17&#45;&gt;Node16 -->
<g id="edge29_Node000016_Node000017" class="edge">
<title>Node17&#45;&gt;Node16</title>
<g id="a_edge29_Node000016_Node000017"><a xlink:title=" ">
<path fill="none" stroke="#9a32cd" stroke-dasharray="5,2" d="M319.52,-622.67C361.44,-621.05 410.36,-619.15 450.99,-617.58"/>
<polygon fill="#9a32cd" stroke="#9a32cd" points="319.16,-619.18 309.3,-623.07 319.43,-626.18 319.16,-619.18"/>
</a>
</g>
<text text-anchor="middle" x="382.5" y="-624.33" font-family="Helvetica,sans-Serif" font-size="10.00" fill="grey"> _renderer</text>
</g>
<!-- Node18&#45;&gt;Node16 -->
<g id="edge30_Node000016_Node000018" class="edge">
<title>Node18&#45;&gt;Node16</title>
<g id="a_edge30_Node000016_Node000018"><a xlink:title=" ">
<path fill="none" stroke="#9a32cd" stroke-dasharray="5,2" d="M320.92,-657.46C356.21,-651.08 396.46,-643.6 433,-636.33 443.93,-634.15 455.49,-631.75 466.75,-629.36"/>
<polygon fill="#9a32cd" stroke="#9a32cd" points="319.85,-654.1 310.63,-659.32 321.09,-660.99 319.85,-654.1"/>
</a>
</g>
<text text-anchor="middle" x="382.5" y="-657.33" font-family="Helvetica,sans-Serif" font-size="10.00" fill="grey"> _activeProfile</text>
</g>
</g>
</svg>
