<?xml version="1.0" encoding="UTF-8" standalone="no"?>
<!DOCTYPE svg PUBLIC "-//W3C//DTD SVG 1.1//EN"
 "http://www.w3.org/Graphics/SVG/1.1/DTD/svg11.dtd">
<!-- Generated by graphviz version 2.43.0 (0)
 -->
<!-- Title: WolfstagInteractive.WitWeaver.RepresentationPair Pages: 1 -->
<svg width="241pt" height="171pt"
 viewBox="0.00 0.00 241.00 171.00" xmlns="http://www.w3.org/2000/svg" xmlns:xlink="http://www.w3.org/1999/xlink">
<g id="graph0" class="graph" transform="scale(1 1) rotate(0) translate(4 167)">
<title>WolfstagInteractive.WitWeaver.RepresentationPair</title>
<!-- Node1 -->
<g id="Node000001" class="node">
<title>Node1</title>
<g id="a_Node000001"><a xlink:title=" ">
<polygon fill="#999999" stroke="#666666" points="170,-30 0,-30 0,0 170,0 170,-30"/>
<text text-anchor="start" x="8" y="-18" font-family="Helvetica,sans-Serif" font-size="10.00">WolfstagInteractive.WitWeaver.</text>
<text text-anchor="middle" x="85" y="-7" font-family="Helvetica,sans-Serif" font-size="10.00">RepresentationPair</text>
</a>
</g>
</g>
<!-- Node2 -->
<g id="Node000002" class="node">
<title>Node2</title>
<g id="a_Node000002"><a xlink:href="classWolfstagInteractive_1_1WitWeaver_1_1CharacterRepresentationBase.html" target="_top" xlink:title="Abstract ScriptableObject base class for all character visual representations.">
<polygon fill="white" stroke="#666666" points="170,-107 0,-107 0,-77 170,-77 170,-107"/>
<text text-anchor="start" x="8" y="-95" font-family="Helvetica,sans-Serif" font-size="10.00">WolfstagInteractive.WitWeaver.</text>
<text text-anchor="middle" x="85" y="-84" font-family="Helvetica,sans-Serif" font-size="10.00">CharacterRepresentationBase</text>
</a>
</g>
</g>
<!-- Node2&#45;&gt;Node1 -->
<g id="edge1_Node000001_Node000002" class="edge">
<title>Node2&#45;&gt;Node1</title>
<g id="a_edge1_Node000001_Node000002"><a xlink:title=" ">
<path fill="none" stroke="#9a32cd" stroke-dasharray="5,2" d="M85,-66.54C85,-54.45 85,-40.29 85,-30.04"/>
<polygon fill="#9a32cd" stroke="#9a32cd" points="81.5,-66.89 85,-76.89 88.5,-66.89 81.5,-66.89"/>
</a>
</g>
<text text-anchor="middle" x="159" y="-51" font-family="Helvetica,sans-Serif" font-size="10.00" fill="grey"> CharacterRepresentationType</text>
</g>
<!-- Node3 -->
<g id="Node000003" class="node">
<title>Node3</title>
<g id="a_Node000003"><a xlink:title=" ">
<polygon fill="white" stroke="#666666" points="133.5,-163 36.5,-163 36.5,-144 133.5,-144 133.5,-163"/>
<text text-anchor="middle" x="85" y="-151" font-family="Helvetica,sans-Serif" font-size="10.00">ScriptableObject</text>
</a>
</g>
</g>
<!-- Node3&#45;&gt;Node2 -->
<g id="edge2_Node000002_Node000003" class="edge">
<title>Node3&#45;&gt;Node2</title>
<g id="a_edge2_Node000002_Node000003"><a xlink:title=" ">
<path fill="none" stroke="#63b8ff" d="M85,-133.73C85,-125.09 85,-115 85,-107.02"/>
<polygon fill="#63b8ff" stroke="#63b8ff" points="81.5,-133.98 85,-143.98 88.5,-133.98 81.5,-133.98"/>
</a>
</g>
</g>
</g>
</svg>
