<?xml version="1.0" encoding="UTF-8" standalone="no"?>
<!DOCTYPE svg PUBLIC "-//W3C//DTD SVG 1.1//EN"
 "http://www.w3.org/Graphics/SVG/1.1/DTD/svg11.dtd">
<!-- Generated by graphviz version 2.43.0 (0)
 -->
<!-- Title: WolfstagInteractive.WitWeaver.WitWeaverDialogueLineActionFadeInOutSpriteRenderer Pages: 1 -->
<svg width="332pt" height="182pt"
 viewBox="0.00 0.00 331.50 182.00" xmlns="http://www.w3.org/2000/svg" xmlns:xlink="http://www.w3.org/1999/xlink">
<g id="graph0" class="graph" transform="scale(1 1) rotate(0) translate(4 178)">
<title>WolfstagInteractive.WitWeaver.WitWeaverDialogueLineActionFadeInOutSpriteRenderer</title>
<!-- Node1 -->
<g id="Node000001" class="node">
<title>Node1</title>
<g id="a_Node000001"><a xlink:title=" ">
<polygon fill="#999999" stroke="#666666" points="250.5,-41 54.5,-41 54.5,0 250.5,0 250.5,-41"/>
<text text-anchor="start" x="62.5" y="-29" font-family="Helvetica,sans-Serif" font-size="10.00">WolfstagInteractive.WitWeaver.</text>
<text text-anchor="start" x="62.5" y="-18" font-family="Helvetica,sans-Serif" font-size="10.00">WitWeaverDialogueLineActionFadeIn</text>
<text text-anchor="middle" x="152.5" y="-7" font-family="Helvetica,sans-Serif" font-size="10.00">OutSpriteRenderer</text>
</a>
</g>
</g>
<!-- Node2 -->
<g id="Node000002" class="node">
<title>Node2</title>
<g id="a_Node000002"><a xlink:href="classWolfstagInteractive_1_1WitWeaver_1_1BaseDialogueLineAction.html" target="_top" xlink:title="Base ScriptableObject class for all WitWeaver dialogue line actions.">
<polygon fill="white" stroke="#666666" points="135,-112.5 0,-112.5 0,-93.5 135,-93.5 135,-112.5"/>
<text text-anchor="middle" x="67.5" y="-100.5" font-family="Helvetica,sans-Serif" font-size="10.00">BaseDialogueLineAction</text>
</a>
</g>
</g>
<!-- Node2&#45;&gt;Node1 -->
<g id="edge1_Node000001_Node000002" class="edge">
<title>Node2&#45;&gt;Node1</title>
<g id="a_edge1_Node000001_Node000002"><a xlink:title=" ">
<path fill="none" stroke="#63b8ff" d="M83.89,-86.48C97.57,-73.52 117.15,-54.98 131.89,-41.02"/>
<polygon fill="#63b8ff" stroke="#63b8ff" points="81.45,-83.97 76.6,-93.39 86.26,-89.05 81.45,-83.97"/>
</a>
</g>
</g>
<!-- Node3 -->
<g id="Node000003" class="node">
<title>Node3</title>
<g id="a_Node000003"><a xlink:title=" ">
<polygon fill="white" stroke="#666666" points="116,-174 19,-174 19,-155 116,-155 116,-174"/>
<text text-anchor="middle" x="67.5" y="-162" font-family="Helvetica,sans-Serif" font-size="10.00">ScriptableObject</text>
</a>
</g>
</g>
<!-- Node3&#45;&gt;Node2 -->
<g id="edge2_Node000002_Node000003" class="edge">
<title>Node3&#45;&gt;Node2</title>
<g id="a_edge2_Node000002_Node000003"><a xlink:title=" ">
<path fill="none" stroke="#63b8ff" d="M67.5,-144.82C67.5,-134 67.5,-120.9 67.5,-112.51"/>
<polygon fill="#63b8ff" stroke="#63b8ff" points="64,-144.98 67.5,-154.98 71,-144.98 64,-144.98"/>
</a>
</g>
</g>
<!-- Node4 -->
<g id="Node000004" class="node">
<title>Node4</title>
<g id="a_Node000004"><a xlink:href="classWolfstagInteractive_1_1WitWeaver_1_1GameObjectReference.html" target="_top" xlink:title=" ">
<polygon fill="white" stroke="#666666" points="323.5,-118 153.5,-118 153.5,-88 323.5,-88 323.5,-118"/>
<text text-anchor="start" x="161.5" y="-106" font-family="Helvetica,sans-Serif" font-size="10.00">WolfstagInteractive.WitWeaver.</text>
<text text-anchor="middle" x="238.5" y="-95" font-family="Helvetica,sans-Serif" font-size="10.00">GameObjectReference</text>
</a>
</g>
</g>
<!-- Node4&#45;&gt;Node1 -->
<g id="edge3_Node000001_Node000004" class="edge">
<title>Node4&#45;&gt;Node1</title>
<g id="a_edge3_Node000001_Node000004"><a xlink:title=" ">
<path fill="none" stroke="#9a32cd" stroke-dasharray="5,2" d="M216.2,-81.12C203,-68.77 186.38,-53.21 173.43,-41.09"/>
<polygon fill="#9a32cd" stroke="#9a32cd" points="213.83,-83.7 223.52,-87.98 218.61,-78.59 213.83,-83.7"/>
</a>
</g>
<text text-anchor="middle" x="250.5" y="-62" font-family="Helvetica,sans-Serif" font-size="10.00" fill="grey"> TargetGameObject</text>
</g>
</g>
</svg>
