<?xml version="1.0" encoding="UTF-8" standalone="no"?>
<!DOCTYPE svg PUBLIC "-//W3C//DTD SVG 1.1//EN"
 "http://www.w3.org/Graphics/SVG/1.1/DTD/svg11.dtd">
<!-- Generated by graphviz version 2.43.0 (0)
 -->
<!-- Title: WolfstagInteractive.WitWeaver.WitWeaverUIFoundation Pages: 1 -->
<svg width="1754pt" height="513pt"
 viewBox="0.00 0.00 1754.00 513.05" xmlns="http://www.w3.org/2000/svg" xmlns:xlink="http://www.w3.org/1999/xlink">
<g id="graph0" class="graph" transform="scale(1 1) rotate(0) translate(4 509.05)">
<title>WolfstagInteractive.WitWeaver.WitWeaverUIFoundation</title>
<!-- Node1 -->
<g id="Node000001" class="node">
<title>Node1</title>
<g id="a_Node000001"><a xlink:title="Used as a basis of any UI that can be assigned in the inspector that includes all the base functions ...">
<polygon fill="#999999" stroke="#666666" points="1746,-468.02 1576,-468.02 1576,-438.02 1746,-438.02 1746,-468.02"/>
<text text-anchor="start" x="1584" y="-456.02" font-family="Helvetica,sans-Serif" font-size="10.00">WolfstagInteractive.WitWeaver.</text>
<text text-anchor="middle" x="1661" y="-445.02" font-family="Helvetica,sans-Serif" font-size="10.00">WitWeaverUIFoundation</text>
</a>
</g>
</g>
<!-- Node2 -->
<g id="Node000002" class="node">
<title>Node2</title>
<g id="a_Node000002"><a xlink:title=" ">
<polygon fill="white" stroke="#666666" points="1028.5,-492.52 935.5,-492.52 935.5,-473.52 1028.5,-473.52 1028.5,-492.52"/>
<text text-anchor="middle" x="982" y="-480.52" font-family="Helvetica,sans-Serif" font-size="10.00">MonoBehaviour</text>
</a>
</g>
</g>
<!-- Node2&#45;&gt;Node1 -->
<g id="edge1_Node000001_Node000002" class="edge">
<title>Node2&#45;&gt;Node1</title>
<g id="a_edge1_Node000001_Node000002"><a xlink:title=" ">
<path fill="none" stroke="#63b8ff" d="M1038.91,-489.68C1059.64,-491.84 1083.36,-493.96 1105,-495.02 1306.17,-504.89 1359.45,-515.89 1558,-482.02 1576.96,-478.79 1597.44,-473.36 1615.04,-468.07"/>
<polygon fill="#63b8ff" stroke="#63b8ff" points="1039.01,-486.17 1028.69,-488.59 1038.26,-493.13 1039.01,-486.17"/>
</a>
</g>
</g>
<!-- Node4 -->
<g id="Node000004" class="node">
<title>Node4</title>
<g id="a_Node000004"><a xlink:href="classWolfstagInteractive_1_1WitWeaver_1_1WitWeaver.html" target="_top" xlink:title="Main conversation runner MonoBehaviour.">
<polygon fill="white" stroke="#666666" points="1394,-246.02 1224,-246.02 1224,-216.02 1394,-216.02 1394,-246.02"/>
<text text-anchor="start" x="1232" y="-234.02" font-family="Helvetica,sans-Serif" font-size="10.00">WolfstagInteractive.WitWeaver.</text>
<text text-anchor="middle" x="1309" y="-223.02" font-family="Helvetica,sans-Serif" font-size="10.00">WitWeaver</text>
</a>
</g>
</g>
<!-- Node2&#45;&gt;Node4 -->
<g id="edge4_Node000004_Node000002" class="edge">
<title>Node2&#45;&gt;Node4</title>
<g id="a_edge4_Node000004_Node000002"><a xlink:title=" ">
<path fill="none" stroke="#63b8ff" d="M1038.64,-483.81C1055.91,-481.4 1073.85,-475.79 1087,-464.02 1107.75,-445.45 1089.78,-427.34 1105,-404.02 1130.43,-365.05 1241.07,-280.63 1287.44,-246.15"/>
<polygon fill="#63b8ff" stroke="#63b8ff" points="1038.15,-480.35 1028.58,-484.89 1038.9,-487.31 1038.15,-480.35"/>
</a>
</g>
</g>
<!-- Node10 -->
<g id="Node000010" class="node">
<title>Node10</title>
<g id="a_Node000010"><a xlink:href="classWolfstagInteractive_1_1WitWeaver_1_1WitWeaverUIFoundation.html" target="_top" xlink:title="Used as a basis of any UI that can be assigned in the inspector that includes all the base functions ...">
<polygon fill="white" stroke="#666666" points="1746,-263.02 1576,-263.02 1576,-233.02 1746,-233.02 1746,-263.02"/>
<text text-anchor="start" x="1584" y="-251.02" font-family="Helvetica,sans-Serif" font-size="10.00">WolfstagInteractive.WitWeaver.</text>
<text text-anchor="middle" x="1661" y="-240.02" font-family="Helvetica,sans-Serif" font-size="10.00">WitWeaverUIFoundation</text>
</a>
</g>
</g>
<!-- Node2&#45;&gt;Node10 -->
<g id="edge13_Node000010_Node000002" class="edge">
<title>Node2&#45;&gt;Node10</title>
<g id="a_edge13_Node000010_Node000002"><a xlink:title=" ">
<path fill="none" stroke="#63b8ff" d="M1039.13,-482.02C1084.65,-480.19 1150.18,-475.23 1206,-462.02 1214.35,-460.04 1215.8,-457.54 1224,-455.02 1298.1,-432.25 1334.28,-465.44 1394,-416.02 1409.33,-403.33 1396.44,-387.43 1412,-375.02 1463.65,-333.82 1499.39,-377.53 1558,-347.02 1597.62,-326.4 1632.2,-285.45 1649.07,-263.22"/>
<polygon fill="#63b8ff" stroke="#63b8ff" points="1038.74,-478.53 1028.87,-482.39 1038.99,-485.53 1038.74,-478.53"/>
</a>
</g>
</g>
<!-- Node11 -->
<g id="Node000011" class="node">
<title>Node11</title>
<g id="a_Node000011"><a xlink:href="classWolfstagInteractive_1_1WitWeaver_1_1WitWeaverDialogueHistoryUI.html" target="_top" xlink:title=" ">
<polygon fill="white" stroke="#666666" points="1394,-407.02 1224,-407.02 1224,-377.02 1394,-377.02 1394,-407.02"/>
<text text-anchor="start" x="1232" y="-395.02" font-family="Helvetica,sans-Serif" font-size="10.00">WolfstagInteractive.WitWeaver.</text>
<text text-anchor="middle" x="1309" y="-384.02" font-family="Helvetica,sans-Serif" font-size="10.00">WitWeaverDialogueHistoryUI</text>
</a>
</g>
</g>
<!-- Node2&#45;&gt;Node11 -->
<g id="edge17_Node000011_Node000002" class="edge">
<title>Node2&#45;&gt;Node11</title>
<g id="a_edge17_Node000011_Node000002"><a xlink:title=" ">
<path fill="none" stroke="#63b8ff" d="M1038.7,-473.3C1054.35,-470.44 1071.36,-467.22 1087,-464.02 1140.13,-453.15 1157.77,-461.82 1206,-437.02 1215.52,-432.13 1214.76,-426.43 1224,-421.02 1233.32,-415.57 1243.82,-410.93 1254.17,-407.06"/>
<polygon fill="#63b8ff" stroke="#63b8ff" points="1037.86,-469.89 1028.64,-475.11 1039.11,-476.78 1037.86,-469.89"/>
</a>
</g>
</g>
<!-- Node3 -->
<g id="Node000003" class="node">
<title>Node3</title>
<g id="a_Node000003"><a xlink:href="interfaceWolfstagInteractive_1_1WitWeaver_1_1IUIFoundation.html" target="_top" xlink:title="Contract between the WitWeaver runner and a dialogue UI implementation.">
<polygon fill="white" stroke="#666666" points="1351,-482.52 1267,-482.52 1267,-463.52 1351,-463.52 1351,-482.52"/>
<text text-anchor="middle" x="1309" y="-470.52" font-family="Helvetica,sans-Serif" font-size="10.00">IUIFoundation</text>
</a>
</g>
</g>
<!-- Node3&#45;&gt;Node1 -->
<g id="edge2_Node000001_Node000003" class="edge">
<title>Node3&#45;&gt;Node1</title>
<g id="a_edge2_Node000001_Node000003"><a xlink:title=" ">
<path fill="none" stroke="#63b8ff" d="M1361.58,-472.63C1411.79,-471.95 1490.22,-470.09 1558,-465.02 1563.78,-464.59 1569.73,-464.07 1575.73,-463.5"/>
<polygon fill="#63b8ff" stroke="#63b8ff" points="1361.26,-469.14 1351.31,-472.76 1361.35,-476.13 1361.26,-469.14"/>
</a>
</g>
</g>
<!-- Node3&#45;&gt;Node10 -->
<g id="edge14_Node000010_Node000003" class="edge">
<title>Node3&#45;&gt;Node10</title>
<g id="a_edge14_Node000010_Node000003"><a xlink:title=" ">
<path fill="none" stroke="#63b8ff" d="M1361.02,-466.57C1372.99,-462.99 1384.88,-457.49 1394,-449.02 1411,-433.23 1394.32,-415.04 1412,-400.02 1462.36,-357.25 1501.19,-405.76 1558,-372.02 1603.54,-344.98 1637.67,-289.77 1652.24,-263.1"/>
<polygon fill="#63b8ff" stroke="#63b8ff" points="1359.84,-463.26 1351.02,-469.13 1361.58,-470.04 1359.84,-463.26"/>
</a>
</g>
</g>
<!-- Node4&#45;&gt;Node1 -->
<g id="edge3_Node000001_Node000004" class="edge">
<title>Node4&#45;&gt;Node1</title>
<g id="a_edge3_Node000001_Node000004"><a xlink:title=" ">
<path fill="none" stroke="#9a32cd" stroke-dasharray="5,2" d="M1338.1,-252.45C1358.32,-267.61 1386.43,-288.16 1412,-305.02 1490.49,-356.77 1587.04,-412.11 1633.09,-438.02"/>
<polygon fill="#9a32cd" stroke="#9a32cd" points="1340.04,-249.53 1329.94,-246.31 1335.83,-255.12 1340.04,-249.53"/>
</a>
</g>
<text text-anchor="middle" x="1485" y="-394.02" font-family="Helvetica,sans-Serif" font-size="10.00" fill="grey"> WitWeaverInstance</text>
</g>
<!-- Node4&#45;&gt;Node10 -->
<g id="edge15_Node000010_Node000004" class="edge">
<title>Node4&#45;&gt;Node10</title>
<g id="a_edge15_Node000010_Node000004"><a xlink:title=" ">
<path fill="none" stroke="#9a32cd" stroke-dasharray="5,2" d="M1404.25,-228.05C1450.63,-227.44 1507.32,-227.97 1558,-232.02 1563.81,-232.49 1569.78,-233.09 1575.79,-233.79"/>
<polygon fill="#9a32cd" stroke="#9a32cd" points="1404.16,-224.55 1394.22,-228.2 1404.27,-231.55 1404.16,-224.55"/>
</a>
</g>
<text text-anchor="middle" x="1485" y="-235.02" font-family="Helvetica,sans-Serif" font-size="10.00" fill="grey"> WitWeaverInstance</text>
</g>
<!-- Node5 -->
<g id="Node000005" class="node">
<title>Node5</title>
<g id="a_Node000005"><a xlink:href="interfaceWolfstagInteractive_1_1WitWeaver_1_1IWitWeaverRunner.html" target="_top" xlink:title="Minimal interface implemented by WitWeaver.">
<polygon fill="white" stroke="#666666" points="1035.5,-282.52 928.5,-282.52 928.5,-263.52 1035.5,-263.52 1035.5,-282.52"/>
<text text-anchor="middle" x="982" y="-270.52" font-family="Helvetica,sans-Serif" font-size="10.00">IWitWeaverRunner</text>
</a>
</g>
</g>
<!-- Node5&#45;&gt;Node4 -->
<g id="edge5_Node000004_Node000005" class="edge">
<title>Node5&#45;&gt;Node4</title>
<g id="a_edge5_Node000004_Node000005"><a xlink:title=" ">
<path fill="none" stroke="#63b8ff" d="M1045.87,-265.32C1090.55,-259.8 1151.98,-252.12 1206,-245.02 1211.85,-244.25 1217.88,-243.45 1223.96,-242.63"/>
<polygon fill="#63b8ff" stroke="#63b8ff" points="1045.23,-261.87 1035.74,-266.57 1046.09,-268.82 1045.23,-261.87"/>
</a>
</g>
</g>
<!-- Node6 -->
<g id="Node000006" class="node">
<title>Node6</title>
<g id="a_Node000006"><a xlink:href="classWolfstagInteractive_1_1WitWeaver_1_1WitWeaverConversationData.html" target="_top" xlink:title=" ">
<polygon fill="white" stroke="#666666" points="1067,-62.02 897,-62.02 897,-32.02 1067,-32.02 1067,-62.02"/>
<text text-anchor="start" x="905" y="-50.02" font-family="Helvetica,sans-Serif" font-size="10.00">WolfstagInteractive.WitWeaver.</text>
<text text-anchor="middle" x="982" y="-39.02" font-family="Helvetica,sans-Serif" font-size="10.00">WitWeaverConversationData</text>
</a>
</g>
</g>
<!-- Node6&#45;&gt;Node1 -->
<g id="edge32_Node000001_Node000006" class="edge">
<title>Node6&#45;&gt;Node1</title>
<g id="a_edge32_Node000001_Node000006"><a xlink:title=" ">
<path fill="none" stroke="#9a32cd" stroke-dasharray="5,2" d="M1077.23,-57.7C1117.7,-64.08 1165,-73.97 1206,-89.02 1296.25,-122.15 1336.89,-118.68 1394,-196.02 1415.91,-225.69 1385.55,-251.33 1412,-277.02 1459.4,-323.05 1502.68,-268.9 1558,-305.02 1609.21,-338.46 1641.8,-407.45 1654.26,-437.95"/>
<polygon fill="#9a32cd" stroke="#9a32cd" points="1077.51,-54.21 1067.1,-56.16 1076.46,-61.13 1077.51,-54.21"/>
</a>
</g>
<text text-anchor="middle" x="1309" y="-199.02" font-family="Helvetica,sans-Serif" font-size="10.00" fill="grey"> _currentLine</text>
</g>
<!-- Node6&#45;&gt;Node4 -->
<g id="edge6_Node000004_Node000006" class="edge">
<title>Node6&#45;&gt;Node4</title>
<g id="a_edge6_Node000004_Node000006"><a xlink:title=" ">
<path fill="none" stroke="#9a32cd" stroke-dasharray="5,2" d="M1037.69,-65.62C1084.26,-82.65 1152.01,-110.3 1206,-144.02 1223.87,-155.18 1267.46,-194.05 1291.47,-215.87"/>
<polygon fill="#9a32cd" stroke="#9a32cd" points="1038.68,-62.26 1028.09,-62.15 1036.3,-68.84 1038.68,-62.26"/>
</a>
</g>
<text text-anchor="middle" x="1155.5" y="-147.02" font-family="Helvetica,sans-Serif" font-size="10.00" fill="grey"> ConversationData</text>
</g>
<!-- Node8 -->
<g id="Node000008" class="node">
<title>Node8</title>
<g id="a_Node000008"><a xlink:href="classWolfstagInteractive_1_1WitWeaver_1_1WitWeaverAudioManifest.html" target="_top" xlink:title="Maps dialogue line IDs to audio clips or middleware references, supporting Unity AudioSource,...">
<polygon fill="white" stroke="#666666" points="1394,-60.02 1224,-60.02 1224,-30.02 1394,-30.02 1394,-60.02"/>
<text text-anchor="start" x="1232" y="-48.02" font-family="Helvetica,sans-Serif" font-size="10.00">WolfstagInteractive.WitWeaver.</text>
<text text-anchor="middle" x="1309" y="-37.02" font-family="Helvetica,sans-Serif" font-size="10.00">WitWeaverAudioManifest</text>
</a>
</g>
</g>
<!-- Node6&#45;&gt;Node8 -->
<g id="edge10_Node000008_Node000006" class="edge">
<title>Node6&#45;&gt;Node8</title>
<g id="a_edge10_Node000008_Node000006"><a xlink:title=" ">
<path fill="none" stroke="#9a32cd" stroke-dasharray="5,2" d="M1077.18,-46.22C1086.58,-46.15 1095.98,-46.08 1105,-46.02 1143.94,-45.77 1187.09,-45.54 1223.55,-45.38"/>
<polygon fill="#9a32cd" stroke="#9a32cd" points="1076.98,-42.72 1067,-46.3 1077.03,-49.72 1076.98,-42.72"/>
</a>
</g>
<text text-anchor="middle" x="1155.5" y="-49.02" font-family="Helvetica,sans-Serif" font-size="10.00" fill="grey"> SourceConversation</text>
</g>
<!-- Node6&#45;&gt;Node10 -->
<g id="edge24_Node000010_Node000006" class="edge">
<title>Node6&#45;&gt;Node10</title>
<g id="a_edge24_Node000010_Node000006"><a xlink:title=" ">
<path fill="none" stroke="#9a32cd" stroke-dasharray="5,2" d="M1025.31,-28.12C1048.37,-18.85 1077.69,-8.69 1105,-4.02 1155.6,4.64 1377.29,-3.33 1394,-10.02 1515.09,-58.51 1616.89,-188.18 1649.25,-232.73"/>
<polygon fill="#9a32cd" stroke="#9a32cd" points="1023.76,-24.97 1015.84,-32.02 1026.42,-31.45 1023.76,-24.97"/>
</a>
</g>
<text text-anchor="middle" x="1309" y="-13.02" font-family="Helvetica,sans-Serif" font-size="10.00" fill="grey"> _currentLine</text>
</g>
<!-- Node7 -->
<g id="Node000007" class="node">
<title>Node7</title>
<g id="a_Node000007"><a xlink:title=" ">
<polygon fill="white" stroke="#666666" points="97,-121.52 0,-121.52 0,-102.52 97,-102.52 97,-121.52"/>
<text text-anchor="middle" x="48.5" y="-109.52" font-family="Helvetica,sans-Serif" font-size="10.00">ScriptableObject</text>
</a>
</g>
</g>
<!-- Node7&#45;&gt;Node6 -->
<g id="edge7_Node000006_Node000007" class="edge">
<title>Node7&#45;&gt;Node6</title>
<g id="a_edge7_Node000006_Node000007"><a xlink:title=" ">
<path fill="none" stroke="#63b8ff" d="M71.85,-96.78C84.04,-89.34 99.72,-81.13 115,-77.02 393.2,-2.21 739.78,-22.54 896.76,-37.53"/>
<polygon fill="#63b8ff" stroke="#63b8ff" points="69.83,-93.91 63.28,-102.24 73.59,-99.82 69.83,-93.91"/>
</a>
</g>
</g>
<!-- Node7&#45;&gt;Node8 -->
<g id="edge9_Node000008_Node000007" class="edge">
<title>Node7&#45;&gt;Node8</title>
<g id="a_edge9_Node000008_Node000007"><a xlink:title=" ">
<path fill="none" stroke="#63b8ff" d="M107.43,-101.2C139.83,-96.06 181.02,-91.02 218,-91.02 218,-91.02 218,-91.02 784.5,-91.02 972.31,-91.02 1019.54,-83.45 1206,-61.02 1211.78,-60.33 1217.74,-59.55 1223.74,-58.72"/>
<polygon fill="#63b8ff" stroke="#63b8ff" points="106.54,-97.8 97.24,-102.87 107.67,-104.71 106.54,-97.8"/>
</a>
</g>
</g>
<!-- Node12 -->
<g id="Node000012" class="node">
<title>Node12</title>
<g id="a_Node000012"><a xlink:href="classWolfstagInteractive_1_1WitWeaver_1_1WitWeaverSettings.html" target="_top" xlink:title="Global runtime settings ScriptableObject for WitWeaver.">
<polygon fill="white" stroke="#666666" points="304,-149.02 134,-149.02 134,-119.02 304,-119.02 304,-149.02"/>
<text text-anchor="start" x="142" y="-137.02" font-family="Helvetica,sans-Serif" font-size="10.00">WolfstagInteractive.WitWeaver.</text>
<text text-anchor="middle" x="219" y="-126.02" font-family="Helvetica,sans-Serif" font-size="10.00">WitWeaverSettings</text>
</a>
</g>
</g>
<!-- Node7&#45;&gt;Node12 -->
<g id="edge19_Node000012_Node000007" class="edge">
<title>Node7&#45;&gt;Node12</title>
<g id="a_edge19_Node000012_Node000007"><a xlink:title=" ">
<path fill="none" stroke="#63b8ff" d="M107.46,-119.59C115.93,-120.7 124.81,-121.85 133.68,-123.01"/>
<polygon fill="#63b8ff" stroke="#63b8ff" points="107.7,-116.09 97.33,-118.27 106.8,-123.03 107.7,-116.09"/>
</a>
</g>
</g>
<!-- Node14 -->
<g id="Node000014" class="node">
<title>Node14</title>
<g id="a_Node000014"><a xlink:href="classWolfstagInteractive_1_1WitWeaver_1_1WitWeaverHistoryRendererProfile.html" target="_top" xlink:title=" ">
<polygon fill="white" stroke="#666666" points="502,-408.02 322,-408.02 322,-378.02 502,-378.02 502,-408.02"/>
<text text-anchor="start" x="330" y="-396.02" font-family="Helvetica,sans-Serif" font-size="10.00">WolfstagInteractive.WitWeaver.</text>
<text text-anchor="middle" x="412" y="-385.02" font-family="Helvetica,sans-Serif" font-size="10.00">WitWeaverHistoryRendererProfile</text>
</a>
</g>
</g>
<!-- Node7&#45;&gt;Node14 -->
<g id="edge23_Node000014_Node000007" class="edge">
<title>Node7&#45;&gt;Node14</title>
<g id="a_edge23_Node000014_Node000007"><a xlink:title=" ">
<path fill="none" stroke="#63b8ff" d="M62.42,-129.9C97.94,-177.64 202.42,-308.86 322,-373.02 325.35,-374.82 328.85,-376.45 332.45,-377.94"/>
<polygon fill="#63b8ff" stroke="#63b8ff" points="65.17,-127.73 56.42,-121.75 59.53,-131.88 65.17,-127.73"/>
</a>
</g>
</g>
<!-- Node8&#45;&gt;Node6 -->
<g id="edge8_Node000006_Node000008" class="edge">
<title>Node8&#45;&gt;Node6</title>
<g id="a_edge8_Node000006_Node000008"><a xlink:title=" ">
<path fill="none" stroke="#9a32cd" stroke-dasharray="5,2" d="M1261.17,-26.48C1244.09,-20.63 1224.44,-14.93 1206,-12.02 1161.66,-5.03 1149.45,-5.77 1105,-12.02 1077.62,-15.87 1047.76,-24.36 1024.44,-32.01"/>
<polygon fill="#9a32cd" stroke="#9a32cd" points="1260.31,-29.89 1270.9,-29.92 1262.64,-23.29 1260.31,-29.89"/>
</a>
</g>
<text text-anchor="middle" x="1155.5" y="-15.02" font-family="Helvetica,sans-Serif" font-size="10.00" fill="grey"> AudioManifest</text>
</g>
<!-- Node9 -->
<g id="Node000009" class="node">
<title>Node9</title>
<g id="a_Node000009"><a xlink:href="interfaceWolfstagInteractive_1_1WitWeaver_1_1IWitWeaverInput.html" target="_top" xlink:title="Input strategy interface.">
<polygon fill="white" stroke="#666666" points="1067,-245.02 897,-245.02 897,-215.02 1067,-215.02 1067,-245.02"/>
<text text-anchor="start" x="905" y="-233.02" font-family="Helvetica,sans-Serif" font-size="10.00">WolfstagInteractive.WitWeaver.</text>
<text text-anchor="middle" x="982" y="-222.02" font-family="Helvetica,sans-Serif" font-size="10.00">IWitWeaverInput</text>
</a>
</g>
</g>
<!-- Node9&#45;&gt;Node4 -->
<g id="edge11_Node000004_Node000009" class="edge">
<title>Node9&#45;&gt;Node4</title>
<g id="a_edge11_Node000004_Node000009"><a xlink:title=" ">
<path fill="none" stroke="#9a32cd" stroke-dasharray="5,2" d="M1077.17,-230.31C1123.56,-230.45 1179.02,-230.62 1223.95,-230.76"/>
<polygon fill="#9a32cd" stroke="#9a32cd" points="1077.13,-226.81 1067.12,-230.28 1077.11,-233.81 1077.13,-226.81"/>
</a>
</g>
<text text-anchor="middle" x="1155.5" y="-233.02" font-family="Helvetica,sans-Serif" font-size="10.00" fill="grey"> Input</text>
</g>
<!-- Node10&#45;&gt;Node4 -->
<g id="edge12_Node000004_Node000010" class="edge">
<title>Node10&#45;&gt;Node4</title>
<g id="a_edge12_Node000004_Node000010"><a xlink:title=" ">
<path fill="none" stroke="#9a32cd" stroke-dasharray="5,2" d="M1628.12,-227.69C1608.69,-216.52 1582.88,-203.79 1558,-198.02 1494.79,-183.36 1476.1,-187.91 1412,-198.02 1389.94,-201.5 1366.15,-208.97 1347.1,-215.92"/>
<polygon fill="#9a32cd" stroke="#9a32cd" points="1626.45,-230.77 1636.84,-232.84 1630.01,-224.74 1626.45,-230.77"/>
</a>
</g>
<text text-anchor="middle" x="1485" y="-201.02" font-family="Helvetica,sans-Serif" font-size="10.00" fill="grey"> ConversationUI</text>
</g>
<!-- Node11&#45;&gt;Node1 -->
<g id="edge31_Node000001_Node000011" class="edge">
<title>Node11&#45;&gt;Node1</title>
<g id="a_edge31_Node000001_Node000011"><a xlink:title=" ">
<path fill="none" stroke="#9a32cd" stroke-dasharray="5,2" d="M1351.76,-410.99C1369.91,-418.44 1391.64,-426.32 1412,-431.02 1465.7,-443.42 1527.43,-448.92 1575.86,-451.33"/>
<polygon fill="#9a32cd" stroke="#9a32cd" points="1352.93,-407.68 1342.35,-407.04 1350.21,-414.14 1352.93,-407.68"/>
</a>
</g>
<text text-anchor="middle" x="1485" y="-452.02" font-family="Helvetica,sans-Serif" font-size="10.00" fill="grey"> WitWeaverDialogueHistoryUI</text>
</g>
<!-- Node11&#45;&gt;Node10 -->
<g id="edge16_Node000010_Node000011" class="edge">
<title>Node11&#45;&gt;Node10</title>
<g id="a_edge16_Node000010_Node000011"><a xlink:title=" ">
<path fill="none" stroke="#9a32cd" stroke-dasharray="5,2" d="M1343.81,-371.66C1363.34,-360.36 1388.61,-346.51 1412,-336.02 1478.91,-306.02 1559.4,-279.05 1610.14,-263.1"/>
<polygon fill="#9a32cd" stroke="#9a32cd" points="1341.86,-368.75 1334.99,-376.82 1345.39,-374.79 1341.86,-368.75"/>
</a>
</g>
<text text-anchor="middle" x="1485" y="-339.02" font-family="Helvetica,sans-Serif" font-size="10.00" fill="grey"> WitWeaverDialogueHistoryUI</text>
</g>
<!-- Node12&#45;&gt;Node11 -->
<g id="edge18_Node000011_Node000012" class="edge">
<title>Node12&#45;&gt;Node11</title>
<g id="a_edge18_Node000011_Node000012"><a xlink:title=" ">
<path fill="none" stroke="#9a32cd" stroke-dasharray="5,2" d="M268.96,-152.8C376.99,-193.46 644.68,-290.03 877,-340.02 996,-365.63 1136.38,-379.62 1223.81,-386.46"/>
<polygon fill="#9a32cd" stroke="#9a32cd" points="269.9,-149.41 259.31,-149.15 267.43,-155.96 269.9,-149.41"/>
</a>
</g>
<text text-anchor="middle" x="783.5" y="-338.02" font-family="Helvetica,sans-Serif" font-size="10.00" fill="grey"> witWeaverSettings</text>
</g>
<!-- Node12&#45;&gt;Node12 -->
<g id="edge20_Node000012_Node000012" class="edge">
<title>Node12&#45;&gt;Node12</title>
<g id="a_edge20_Node000012_Node000012"><a xlink:title=" ">
<path fill="none" stroke="#9a32cd" stroke-dasharray="5,2" d="M201.15,-159.62C203.59,-163.99 209.54,-167.02 219,-167.02 234.94,-167.02 240.91,-158.43 236.93,-149.3"/>
<polygon fill="#9a32cd" stroke="#9a32cd" points="204.64,-159.27 201.07,-149.3 197.64,-159.32 204.64,-159.27"/>
</a>
</g>
<text text-anchor="middle" x="219" y="-170.02" font-family="Helvetica,sans-Serif" font-size="10.00" fill="grey"> _instance</text>
</g>
<!-- Node17 -->
<g id="Node000017" class="node">
<title>Node17</title>
<g id="a_Node000017"><a xlink:href="classWolfstagInteractive_1_1WitWeaver_1_1WitWeaverLanguageManager.html" target="_top" xlink:title=" ">
<polygon fill="white" stroke="#666666" points="690,-149.02 520,-149.02 520,-119.02 690,-119.02 690,-149.02"/>
<text text-anchor="start" x="528" y="-137.02" font-family="Helvetica,sans-Serif" font-size="10.00">WolfstagInteractive.WitWeaver.</text>
<text text-anchor="middle" x="605" y="-126.02" font-family="Helvetica,sans-Serif" font-size="10.00">WitWeaverLanguageManager</text>
</a>
</g>
</g>
<!-- Node12&#45;&gt;Node17 -->
<g id="edge29_Node000017_Node000012" class="edge">
<title>Node12&#45;&gt;Node17</title>
<g id="a_edge29_Node000017_Node000012"><a xlink:title=" ">
<path fill="none" stroke="#9a32cd" stroke-dasharray="5,2" d="M314.59,-134.02C377.47,-134.02 459.32,-134.02 519.93,-134.02"/>
<polygon fill="#9a32cd" stroke="#9a32cd" points="314.27,-130.52 304.27,-134.02 314.27,-137.52 314.27,-130.52"/>
</a>
</g>
<text text-anchor="middle" x="412" y="-137.02" font-family="Helvetica,sans-Serif" font-size="10.00" fill="grey"> _witWeaverSettings</text>
</g>
<!-- Node13 -->
<g id="Node000013" class="node">
<title>Node13</title>
<g id="a_Node000013"><a xlink:href="interfaceWolfstagInteractive_1_1WitWeaver_1_1IWitWeaverHistoryRenderer.html" target="_top" xlink:title="Base contract for any dialogue history renderer.">
<polygon fill="white" stroke="#666666" points="1067,-455.02 897,-455.02 897,-425.02 1067,-425.02 1067,-455.02"/>
<text text-anchor="start" x="905" y="-443.02" font-family="Helvetica,sans-Serif" font-size="10.00">WolfstagInteractive.WitWeaver.</text>
<text text-anchor="middle" x="982" y="-432.02" font-family="Helvetica,sans-Serif" font-size="10.00">IWitWeaverHistoryRenderer</text>
</a>
</g>
</g>
<!-- Node13&#45;&gt;Node11 -->
<g id="edge21_Node000011_Node000013" class="edge">
<title>Node13&#45;&gt;Node11</title>
<g id="a_edge21_Node000011_Node000013"><a xlink:title=" ">
<path fill="none" stroke="#9a32cd" stroke-dasharray="5,2" d="M1077.18,-426.79C1116.95,-421.12 1163.75,-414.37 1206,-408.02 1211.85,-407.14 1217.89,-406.23 1223.96,-405.29"/>
<polygon fill="#9a32cd" stroke="#9a32cd" points="1076.63,-423.33 1067.22,-428.2 1077.62,-430.26 1076.63,-423.33"/>
</a>
</g>
<text text-anchor="middle" x="1155.5" y="-425.02" font-family="Helvetica,sans-Serif" font-size="10.00" fill="grey"> _renderer</text>
</g>
<!-- Node14&#45;&gt;Node11 -->
<g id="edge22_Node000011_Node000014" class="edge">
<title>Node14&#45;&gt;Node11</title>
<g id="a_edge22_Node000011_Node000014"><a xlink:title=" ">
<path fill="none" stroke="#9a32cd" stroke-dasharray="5,2" d="M512.2,-392.91C689.57,-392.71 1057.99,-392.3 1223.86,-392.12"/>
<polygon fill="#9a32cd" stroke="#9a32cd" points="512.08,-389.41 502.09,-392.92 512.09,-396.41 512.08,-389.41"/>
</a>
</g>
<text text-anchor="middle" x="783.5" y="-395.02" font-family="Helvetica,sans-Serif" font-size="10.00" fill="grey"> _activeProfile</text>
</g>
<!-- Node15 -->
<g id="Node000015" class="node">
<title>Node15</title>
<g id="a_Node000015"><a xlink:href="interfaceWolfstagInteractive_1_1WitWeaver_1_1IWitWeaverAudioProvider.html" target="_top" xlink:title="Interface for audio playback backends.">
<polygon fill="white" stroke="#666666" points="1067,-197.02 897,-197.02 897,-167.02 1067,-167.02 1067,-197.02"/>
<text text-anchor="start" x="905" y="-185.02" font-family="Helvetica,sans-Serif" font-size="10.00">WolfstagInteractive.WitWeaver.</text>
<text text-anchor="middle" x="982" y="-174.02" font-family="Helvetica,sans-Serif" font-size="10.00">IWitWeaverAudioProvider</text>
</a>
</g>
</g>
<!-- Node15&#45;&gt;Node4 -->
<g id="edge25_Node000004_Node000015" class="edge">
<title>Node15&#45;&gt;Node4</title>
<g id="a_edge25_Node000004_Node000015"><a xlink:title=" ">
<path fill="none" stroke="#9a32cd" stroke-dasharray="5,2" d="M1077.16,-195.77C1116.93,-201.63 1163.73,-208.58 1206,-215.02 1211.85,-215.91 1217.88,-216.84 1223.96,-217.78"/>
<polygon fill="#9a32cd" stroke="#9a32cd" points="1077.61,-192.3 1067.21,-194.31 1076.6,-199.23 1077.61,-192.3"/>
</a>
</g>
<text text-anchor="middle" x="1155.5" y="-218.02" font-family="Helvetica,sans-Serif" font-size="10.00" fill="grey"> _audioProvider</text>
</g>
<!-- Node16 -->
<g id="Node000016" class="node">
<title>Node16</title>
<g id="a_Node000016"><a xlink:href="classWolfstagInteractive_1_1WitWeaver_1_1WitWeaverDialogueLocalizationHandler.html" target="_top" xlink:title=" ">
<polygon fill="white" stroke="#666666" points="1087,-149.02 877,-149.02 877,-119.02 1087,-119.02 1087,-149.02"/>
<text text-anchor="start" x="885" y="-137.02" font-family="Helvetica,sans-Serif" font-size="10.00">WolfstagInteractive.WitWeaver.</text>
<text text-anchor="middle" x="982" y="-126.02" font-family="Helvetica,sans-Serif" font-size="10.00">WitWeaverDialogueLocalizationHandler</text>
</a>
</g>
</g>
<!-- Node16&#45;&gt;Node4 -->
<g id="edge26_Node000004_Node000016" class="edge">
<title>Node16&#45;&gt;Node4</title>
<g id="a_edge26_Node000004_Node000016"><a xlink:title=" ">
<path fill="none" stroke="#9a32cd" stroke-dasharray="5,2" d="M1076.52,-151.09C1116.86,-159.55 1164.27,-170.99 1206,-185.02 1231.23,-193.5 1258.66,-206.08 1278.72,-215.94"/>
<polygon fill="#9a32cd" stroke="#9a32cd" points="1077.19,-147.65 1066.69,-149.05 1075.77,-154.51 1077.19,-147.65"/>
</a>
</g>
<text text-anchor="middle" x="1155.5" y="-188.02" font-family="Helvetica,sans-Serif" font-size="10.00" fill="grey"> LocalizationHandler</text>
</g>
<!-- Node17&#45;&gt;Node16 -->
<g id="edge27_Node000016_Node000017" class="edge">
<title>Node17&#45;&gt;Node16</title>
<g id="a_edge27_Node000016_Node000017"><a xlink:title=" ">
<path fill="none" stroke="#9a32cd" stroke-dasharray="5,2" d="M700.36,-134.02C754.06,-134.02 821.43,-134.02 876.69,-134.02"/>
<polygon fill="#9a32cd" stroke="#9a32cd" points="700.16,-130.52 690.16,-134.02 700.16,-137.52 700.16,-130.52"/>
</a>
</g>
<text text-anchor="middle" x="783.5" y="-137.02" font-family="Helvetica,sans-Serif" font-size="10.00" fill="grey"> _witWeaverLanguageManager</text>
</g>
<!-- Node17&#45;&gt;Node17 -->
<g id="edge28_Node000017_Node000017" class="edge">
<title>Node17&#45;&gt;Node17</title>
<g id="a_edge28_Node000017_Node000017"><a xlink:title=" ">
<path fill="none" stroke="#9a32cd" stroke-dasharray="5,2" d="M573.84,-159.62C578.1,-163.99 588.49,-167.02 605,-167.02 632.81,-167.02 643.24,-158.43 636.29,-149.3"/>
<polygon fill="#9a32cd" stroke="#9a32cd" points="577.34,-159.25 573.71,-149.3 570.34,-159.34 577.34,-159.25"/>
</a>
</g>
<text text-anchor="middle" x="605" y="-170.02" font-family="Helvetica,sans-Serif" font-size="10.00" fill="grey"> _instance</text>
</g>
<!-- Node18 -->
<g id="Node000018" class="node">
<title>Node18</title>
<g id="a_Node000018"><a xlink:href="interfaceWolfstagInteractive_1_1WitWeaver_1_1IConversationContext.html" target="_top" xlink:title="Provides optional runtime context for branch evaluation.">
<polygon fill="white" stroke="#666666" points="1067,-331.02 897,-331.02 897,-301.02 1067,-301.02 1067,-331.02"/>
<text text-anchor="start" x="905" y="-319.02" font-family="Helvetica,sans-Serif" font-size="10.00">WolfstagInteractive.WitWeaver.</text>
<text text-anchor="middle" x="982" y="-308.02" font-family="Helvetica,sans-Serif" font-size="10.00">IConversationContext</text>
</a>
</g>
</g>
<!-- Node18&#45;&gt;Node4 -->
<g id="edge30_Node000004_Node000018" class="edge">
<title>Node18&#45;&gt;Node4</title>
<g id="a_edge30_Node000004_Node000018"><a xlink:title=" ">
<path fill="none" stroke="#9a32cd" stroke-dasharray="5,2" d="M1066.94,-298.84C1108.94,-289.73 1160.42,-277.8 1206,-265.02 1225.77,-259.48 1247.38,-252.42 1265.6,-246.18"/>
<polygon fill="#9a32cd" stroke="#9a32cd" points="1066.06,-295.45 1057.03,-300.98 1067.54,-302.29 1066.06,-295.45"/>
</a>
</g>
<text text-anchor="middle" x="1155.5" y="-292.02" font-family="Helvetica,sans-Serif" font-size="10.00" fill="grey"> _context</text>
</g>
</g>
</svg>
