<?xml version="1.0" encoding="UTF-8" standalone="no"?>
<!DOCTYPE svg PUBLIC "-//W3C//DTD SVG 1.1//EN"
 "http://www.w3.org/Graphics/SVG/1.1/DTD/svg11.dtd">
<!-- Generated by graphviz version 2.43.0 (0)
 -->
<!-- Title: WolfstagInteractive.WitWeaver.WitWeaverCharacterBehaviour Pages: 1 -->
<svg width="723pt" height="278pt"
 viewBox="0.00 0.00 723.00 278.00" xmlns="http://www.w3.org/2000/svg" xmlns:xlink="http://www.w3.org/1999/xlink">
<g id="graph0" class="graph" transform="scale(1 1) rotate(0) translate(4 274)">
<title>WolfstagInteractive.WitWeaver.WitWeaverCharacterBehaviour</title>
<!-- Node1 -->
<g id="Node000001" class="node">
<title>Node1</title>
<g id="a_Node000001"><a xlink:title="Abstract ScriptableObject base for all character behaviour types.">
<polygon fill="#999999" stroke="#666666" points="303,-150 133,-150 133,-120 303,-120 303,-150"/>
<text text-anchor="start" x="141" y="-138" font-family="Helvetica,sans-Serif" font-size="10.00">WolfstagInteractive.WitWeaver.</text>
<text text-anchor="middle" x="218" y="-127" font-family="Helvetica,sans-Serif" font-size="10.00">WitWeaverCharacterBehaviour</text>
</a>
</g>
</g>
<!-- Node3 -->
<g id="Node000003" class="node">
<title>Node3</title>
<g id="a_Node000003"><a xlink:href="classWolfstagInteractive_1_1WitWeaver_1_1CameraRelativeBehaviour.html" target="_top" xlink:title="Character behaviour type that places characters at authored offsets relative to the active camera.">
<polygon fill="white" stroke="#666666" points="509,-270 339,-270 339,-240 509,-240 509,-270"/>
<text text-anchor="start" x="347" y="-258" font-family="Helvetica,sans-Serif" font-size="10.00">WolfstagInteractive.WitWeaver.</text>
<text text-anchor="middle" x="424" y="-247" font-family="Helvetica,sans-Serif" font-size="10.00">CameraRelativeBehaviour</text>
</a>
</g>
</g>
<!-- Node1&#45;&gt;Node3 -->
<g id="edge2_Node000001_Node000003" class="edge">
<title>Node1&#45;&gt;Node3</title>
<g id="a_edge2_Node000001_Node000003"><a xlink:title=" ">
<path fill="none" stroke="#63b8ff" d="M241.3,-157.43C264.04,-179.13 301.25,-211.51 339,-231 345.6,-234.41 352.76,-237.39 360.01,-239.99"/>
<polygon fill="#63b8ff" stroke="#63b8ff" points="243.5,-154.69 233.88,-150.24 238.62,-159.71 243.5,-154.69"/>
</a>
</g>
</g>
<!-- Node4 -->
<g id="Node000004" class="node">
<title>Node4</title>
<g id="a_Node000004"><a xlink:href="classWolfstagInteractive_1_1WitWeaver_1_1ExternalBehaviour.html" target="_top" xlink:title="Character behaviour type for characters that are fully managed by the developer.">
<polygon fill="white" stroke="#666666" points="509,-222 339,-222 339,-192 509,-192 509,-222"/>
<text text-anchor="start" x="347" y="-210" font-family="Helvetica,sans-Serif" font-size="10.00">WolfstagInteractive.WitWeaver.</text>
<text text-anchor="middle" x="424" y="-199" font-family="Helvetica,sans-Serif" font-size="10.00">ExternalBehaviour</text>
</a>
</g>
</g>
<!-- Node1&#45;&gt;Node4 -->
<g id="edge3_Node000001_Node000004" class="edge">
<title>Node1&#45;&gt;Node4</title>
<g id="a_edge3_Node000001_Node000004"><a xlink:title=" ">
<path fill="none" stroke="#63b8ff" d="M263.12,-153.9C285.62,-163.22 313.55,-174.3 339,-183 348.04,-186.09 357.72,-189.11 367.17,-191.92"/>
<polygon fill="#63b8ff" stroke="#63b8ff" points="264.4,-150.65 253.83,-150.03 261.71,-157.11 264.4,-150.65"/>
</a>
</g>
</g>
<!-- Node6 -->
<g id="Node000006" class="node">
<title>Node6</title>
<g id="a_Node000006"><a xlink:href="classWolfstagInteractive_1_1WitWeaver_1_1FollowTargetBehaviour.html" target="_top" xlink:title="Character behaviour type that spawns characters and keeps them following a scene Transform during the...">
<polygon fill="white" stroke="#666666" points="509,-174 339,-174 339,-144 509,-144 509,-174"/>
<text text-anchor="start" x="347" y="-162" font-family="Helvetica,sans-Serif" font-size="10.00">WolfstagInteractive.WitWeaver.</text>
<text text-anchor="middle" x="424" y="-151" font-family="Helvetica,sans-Serif" font-size="10.00">FollowTargetBehaviour</text>
</a>
</g>
</g>
<!-- Node1&#45;&gt;Node6 -->
<g id="edge5_Node000001_Node000006" class="edge">
<title>Node1&#45;&gt;Node6</title>
<g id="a_edge5_Node000001_Node000006"><a xlink:title=" ">
<path fill="none" stroke="#63b8ff" d="M313.12,-146.07C321.66,-147.08 330.27,-148.09 338.71,-149.08"/>
<polygon fill="#63b8ff" stroke="#63b8ff" points="313.49,-142.59 303.15,-144.9 312.67,-149.54 313.49,-142.59"/>
</a>
</g>
</g>
<!-- Node7 -->
<g id="Node000007" class="node">
<title>Node7</title>
<g id="a_Node000007"><a xlink:href="classWolfstagInteractive_1_1WitWeaver_1_1SequencedBehaviour.html" target="_top" xlink:title="Character behaviour type that wraps a list of other behaviour types and selects between them based on...">
<polygon fill="white" stroke="#666666" points="509,-126 339,-126 339,-96 509,-96 509,-126"/>
<text text-anchor="start" x="347" y="-114" font-family="Helvetica,sans-Serif" font-size="10.00">WolfstagInteractive.WitWeaver.</text>
<text text-anchor="middle" x="424" y="-103" font-family="Helvetica,sans-Serif" font-size="10.00">SequencedBehaviour</text>
</a>
</g>
</g>
<!-- Node1&#45;&gt;Node7 -->
<g id="edge6_Node000001_Node000007" class="edge">
<title>Node1&#45;&gt;Node7</title>
<g id="a_edge6_Node000001_Node000007"><a xlink:title=" ">
<path fill="none" stroke="#63b8ff" d="M313.12,-123.93C321.66,-122.92 330.27,-121.91 338.71,-120.92"/>
<polygon fill="#63b8ff" stroke="#63b8ff" points="312.67,-120.46 303.15,-125.1 313.49,-127.41 312.67,-120.46"/>
</a>
</g>
</g>
<!-- Node8 -->
<g id="Node000008" class="node">
<title>Node8</title>
<g id="a_Node000008"><a xlink:href="classWolfstagInteractive_1_1WitWeaver_1_1TransformLerpBehaviour.html" target="_top" xlink:title="Character behaviour type for scene&#45;resident characters that move to an authored offset position when ...">
<polygon fill="white" stroke="#666666" points="509,-78 339,-78 339,-48 509,-48 509,-78"/>
<text text-anchor="start" x="347" y="-66" font-family="Helvetica,sans-Serif" font-size="10.00">WolfstagInteractive.WitWeaver.</text>
<text text-anchor="middle" x="424" y="-55" font-family="Helvetica,sans-Serif" font-size="10.00">TransformLerpBehaviour</text>
</a>
</g>
</g>
<!-- Node1&#45;&gt;Node8 -->
<g id="edge7_Node000001_Node000008" class="edge">
<title>Node1&#45;&gt;Node8</title>
<g id="a_edge7_Node000001_Node000008"><a xlink:title=" ">
<path fill="none" stroke="#63b8ff" d="M263.12,-116.1C285.62,-106.78 313.55,-95.7 339,-87 348.04,-83.91 357.72,-80.89 367.17,-78.08"/>
<polygon fill="#63b8ff" stroke="#63b8ff" points="261.71,-112.89 253.83,-119.97 264.4,-119.35 261.71,-112.89"/>
</a>
</g>
</g>
<!-- Node9 -->
<g id="Node000009" class="node">
<title>Node9</title>
<g id="a_Node000009"><a xlink:href="classWolfstagInteractive_1_1WitWeaver_1_1WorldPointBehaviour.html" target="_top" xlink:title="Character behaviour type that places characters at scene&#45;authored positions.">
<polygon fill="white" stroke="#666666" points="509,-30 339,-30 339,0 509,0 509,-30"/>
<text text-anchor="start" x="347" y="-18" font-family="Helvetica,sans-Serif" font-size="10.00">WolfstagInteractive.WitWeaver.</text>
<text text-anchor="middle" x="424" y="-7" font-family="Helvetica,sans-Serif" font-size="10.00">WorldPointBehaviour</text>
</a>
</g>
</g>
<!-- Node1&#45;&gt;Node9 -->
<g id="edge8_Node000001_Node000009" class="edge">
<title>Node1&#45;&gt;Node9</title>
<g id="a_edge8_Node000001_Node000009"><a xlink:title=" ">
<path fill="none" stroke="#63b8ff" d="M241.3,-112.57C264.04,-90.87 301.25,-58.49 339,-39 345.6,-35.59 352.76,-32.61 360.01,-30.01"/>
<polygon fill="#63b8ff" stroke="#63b8ff" points="238.62,-110.29 233.88,-119.76 243.5,-115.31 238.62,-110.29"/>
</a>
</g>
</g>
<!-- Node2 -->
<g id="Node000002" class="node">
<title>Node2</title>
<g id="a_Node000002"><a xlink:title=" ">
<polygon fill="white" stroke="#666666" points="97,-144.5 0,-144.5 0,-125.5 97,-125.5 97,-144.5"/>
<text text-anchor="middle" x="48.5" y="-132.5" font-family="Helvetica,sans-Serif" font-size="10.00">ScriptableObject</text>
</a>
</g>
</g>
<!-- Node2&#45;&gt;Node1 -->
<g id="edge1_Node000001_Node000002" class="edge">
<title>Node2&#45;&gt;Node1</title>
<g id="a_edge1_Node000001_Node000002"><a xlink:title=" ">
<path fill="none" stroke="#63b8ff" d="M107.3,-135C115.57,-135 124.22,-135 132.87,-135"/>
<polygon fill="#63b8ff" stroke="#63b8ff" points="107.05,-131.5 97.05,-135 107.05,-138.5 107.05,-131.5"/>
</a>
</g>
</g>
<!-- Node5 -->
<g id="Node000005" class="node">
<title>Node5</title>
<g id="a_Node000005"><a xlink:href="classWolfstagInteractive_1_1WitWeaver_1_1WitWeaverAnimatorBehaviour.html" target="_top" xlink:title="Character behaviour type for scene&#45;resident characters that are driven by an Animator.">
<polygon fill="white" stroke="#666666" points="715,-222 545,-222 545,-192 715,-192 715,-222"/>
<text text-anchor="start" x="553" y="-210" font-family="Helvetica,sans-Serif" font-size="10.00">WolfstagInteractive.WitWeaver.</text>
<text text-anchor="middle" x="630" y="-199" font-family="Helvetica,sans-Serif" font-size="10.00">WitWeaverAnimatorBehaviour</text>
</a>
</g>
</g>
<!-- Node4&#45;&gt;Node5 -->
<g id="edge4_Node000004_Node000005" class="edge">
<title>Node4&#45;&gt;Node5</title>
<g id="a_edge4_Node000004_Node000005"><a xlink:title=" ">
<path fill="none" stroke="#63b8ff" d="M519.4,-207C527.85,-207 536.36,-207 544.71,-207"/>
<polygon fill="#63b8ff" stroke="#63b8ff" points="519.15,-203.5 509.15,-207 519.15,-210.5 519.15,-203.5"/>
</a>
</g>
</g>
</g>
</svg>
