<?xml version="1.0" encoding="UTF-8" standalone="no"?>
<!DOCTYPE svg PUBLIC "-//W3C//DTD SVG 1.1//EN"
 "http://www.w3.org/Graphics/SVG/1.1/DTD/svg11.dtd">
<!-- Generated by graphviz version 2.43.0 (0)
 -->
<!-- Title: WolfstagInteractive.WitWeaver.WitWeaverConversationData.CharacterRepresentationData Pages: 1 -->
<svg width="760pt" height="86pt"
 viewBox="0.00 0.00 760.00 86.00" xmlns="http://www.w3.org/2000/svg" xmlns:xlink="http://www.w3.org/1999/xlink">
<g id="graph0" class="graph" transform="scale(1 1) rotate(0) translate(4 82)">
<title>WolfstagInteractive.WitWeaver.WitWeaverConversationData.CharacterRepresentationData</title>
<!-- Node1 -->
<g id="Node000001" class="node">
<title>Node1</title>
<g id="a_Node000001"><a xlink:title=" ">
<polygon fill="#999999" stroke="#666666" points="752,-59.5 544,-59.5 544,-18.5 752,-18.5 752,-59.5"/>
<text text-anchor="start" x="552" y="-47.5" font-family="Helvetica,sans-Serif" font-size="10.00">WolfstagInteractive.WitWeaver.</text>
<text text-anchor="start" x="552" y="-36.5" font-family="Helvetica,sans-Serif" font-size="10.00">WitWeaverConversationData.Character</text>
<text text-anchor="middle" x="648" y="-25.5" font-family="Helvetica,sans-Serif" font-size="10.00">RepresentationData</text>
</a>
</g>
</g>
<!-- Node2 -->
<g id="Node000002" class="node">
<title>Node2</title>
<g id="a_Node000002"><a xlink:href="classWolfstagInteractive_1_1WitWeaver_1_1CharacterRepresentationBase.html" target="_top" xlink:title="Abstract ScriptableObject base class for all character visual representations.">
<polygon fill="white" stroke="#666666" points="372,-78 202,-78 202,-48 372,-48 372,-78"/>
<text text-anchor="start" x="210" y="-66" font-family="Helvetica,sans-Serif" font-size="10.00">WolfstagInteractive.WitWeaver.</text>
<text text-anchor="middle" x="287" y="-55" font-family="Helvetica,sans-Serif" font-size="10.00">CharacterRepresentationBase</text>
</a>
</g>
</g>
<!-- Node2&#45;&gt;Node1 -->
<g id="edge1_Node000001_Node000002" class="edge">
<title>Node2&#45;&gt;Node1</title>
<g id="a_edge1_Node000001_Node000002"><a xlink:title=" ">
<path fill="none" stroke="#9a32cd" stroke-dasharray="5,2" d="M382.26,-56.7C431.91,-53.38 492.89,-49.3 543.81,-45.9"/>
<polygon fill="#9a32cd" stroke="#9a32cd" points="381.91,-53.21 372.17,-57.37 382.38,-60.2 381.91,-53.21"/>
</a>
</g>
<text text-anchor="middle" x="458" y="-58" font-family="Helvetica,sans-Serif" font-size="10.00" fill="grey"> SelectedRepresentation</text>
</g>
<!-- Node3 -->
<g id="Node000003" class="node">
<title>Node3</title>
<g id="a_Node000003"><a xlink:title=" ">
<polygon fill="white" stroke="#666666" points="131,-72.5 34,-72.5 34,-53.5 131,-53.5 131,-72.5"/>
<text text-anchor="middle" x="82.5" y="-60.5" font-family="Helvetica,sans-Serif" font-size="10.00">ScriptableObject</text>
</a>
</g>
</g>
<!-- Node3&#45;&gt;Node2 -->
<g id="edge2_Node000002_Node000003" class="edge">
<title>Node3&#45;&gt;Node2</title>
<g id="a_edge2_Node000002_Node000003"><a xlink:title=" ">
<path fill="none" stroke="#63b8ff" d="M141.39,-63C160.18,-63 181.42,-63 201.72,-63"/>
<polygon fill="#63b8ff" stroke="#63b8ff" points="141.23,-59.5 131.23,-63 141.23,-66.5 141.23,-59.5"/>
</a>
</g>
</g>
<!-- Node4 -->
<g id="Node000004" class="node">
<title>Node4</title>
<g id="a_Node000004"><a xlink:href="classWolfstagInteractive_1_1WitWeaver_1_1DialogueLineDisplayOptions.html" target="_top" xlink:title=" ">
<polygon fill="white" stroke="#666666" points="372,-30 202,-30 202,0 372,0 372,-30"/>
<text text-anchor="start" x="210" y="-18" font-family="Helvetica,sans-Serif" font-size="10.00">WolfstagInteractive.WitWeaver.</text>
<text text-anchor="middle" x="287" y="-7" font-family="Helvetica,sans-Serif" font-size="10.00">DialogueLineDisplayOptions</text>
</a>
</g>
</g>
<!-- Node4&#45;&gt;Node1 -->
<g id="edge3_Node000001_Node000004" class="edge">
<title>Node4&#45;&gt;Node1</title>
<g id="a_edge3_Node000001_Node000004"><a xlink:title=" ">
<path fill="none" stroke="#9a32cd" stroke-dasharray="5,2" d="M382.26,-21.3C431.91,-24.62 492.89,-28.7 543.81,-32.1"/>
<polygon fill="#9a32cd" stroke="#9a32cd" points="382.38,-17.8 372.17,-20.63 381.91,-24.79 382.38,-17.8"/>
</a>
</g>
<text text-anchor="middle" x="458" y="-33" font-family="Helvetica,sans-Serif" font-size="10.00" fill="grey"> LineSpecificDisplayOptions</text>
</g>
<!-- Node5 -->
<g id="Node000005" class="node">
<title>Node5</title>
<g id="a_Node000005"><a xlink:title=" ">
<polygon fill="white" stroke="#666666" points="165,-24.5 0,-24.5 0,-5.5 165,-5.5 165,-24.5"/>
<text text-anchor="middle" x="82.5" y="-12.5" font-family="Helvetica,sans-Serif" font-size="10.00">ISerializationCallbackReceiver</text>
</a>
</g>
</g>
<!-- Node5&#45;&gt;Node4 -->
<g id="edge4_Node000004_Node000005" class="edge">
<title>Node5&#45;&gt;Node4</title>
<g id="a_edge4_Node000004_Node000005"><a xlink:title=" ">
<path fill="none" stroke="#63b8ff" d="M175.54,-15C184.34,-15 193.22,-15 201.93,-15"/>
<polygon fill="#63b8ff" stroke="#63b8ff" points="175.28,-11.5 165.28,-15 175.28,-18.5 175.28,-11.5"/>
</a>
</g>
</g>
</g>
</svg>
